<?xml version="1.0" standalone="no"?>
<!DOCTYPE svg PUBLIC "-//W3C//DTD SVG 20010904//EN"
 "http://www.w3.org/TR/2001/REC-SVG-20010904/DTD/svg10.dtd">
<svg version="1.0" xmlns="http://www.w3.org/2000/svg"
 width="1200.000000pt" height="1200.000000pt" viewBox="0 0 1200.000000 1200.000000"
 preserveAspectRatio="xMidYMid meet">

<g transform="translate(0.000000,1200.000000) scale(0.100000,-0.100000)"
fill="#000000" stroke="none">
<path d="M7416 10554 c-84 -30 -304 -139 -381 -188 -27 -18 -102 -67 -159
-106 -31 -21 -105 -80 -131 -105 -79 -75 -127 -115 -139 -115 -7 0 -39 9 -72
21 -181 64 -483 140 -644 163 -252 37 -756 45 -975 17 -114 -15 -316 -51 -370
-66 -294 -83 -387 -117 -560 -203 -153 -78 -212 -113 -345 -210 -15 -11 -26
-10 -67 6 -68 28 -237 79 -307 93 -33 6 -69 15 -80 20 -12 5 -86 18 -166 30
-176 27 -398 31 -445 8 l-30 -14 -3 -210 c-6 -421 40 -758 142 -1046 17 -46
14 -66 -14 -109 -12 -20 -80 -168 -80 -178 -1 -4 -9 -25 -20 -47 -11 -22 -19
-46 -20 -52 0 -7 -11 -41 -24 -75 -110 -286 -203 -711 -225 -1028 -21 -283
-10 -646 24 -860 46 -287 108 -567 154 -695 18 -50 51 -157 67 -215 24 -86
120 -332 174 -445 46 -94 50 -112 31 -129 -10 -9 -21 -16 -24 -16 -4 0 -62
-31 -130 -68 -311 -174 -654 -322 -746 -322 -52 0 -70 -49 -27 -72 77 -43 97
-56 151 -102 72 -60 183 -166 234 -220 20 -22 47 -51 61 -66 74 -79 202 -221
239 -265 23 -27 52 -61 64 -75 54 -61 54 -57 -3 -113 -54 -53 -130 -148 -130
-162 0 -5 -6 -16 -13 -24 -16 -19 -67 -159 -67 -183 0 -10 -10 -23 -22 -29
-34 -17 -76 -69 -89 -109 -16 -46 -45 -87 -68 -95 -10 -3 -24 -17 -32 -31 -15
-28 -34 -38 -119 -60 -62 -16 -132 -44 -204 -81 -155 -79 -316 -257 -282 -312
4 -6 -2 -28 -13 -49 -40 -78 -72 -237 -83 -416 -12 -184 -9 -221 21 -231 17
-5 269 25 340 41 188 42 392 152 461 249 14 19 33 37 42 40 35 12 81 86 104
168 18 63 25 120 30 242 6 148 9 162 30 188 13 16 24 32 24 35 0 4 18 13 41
20 22 7 58 24 81 38 22 14 59 28 82 30 252 24 422 62 544 121 66 32 180 112
229 161 l34 34 62 -11 c34 -6 142 -14 241 -18 l178 -6 -118 -118 c-66 -66
-146 -141 -179 -168 -33 -27 -71 -60 -85 -73 -27 -26 -129 -101 -210 -155 -30
-20 -71 -47 -91 -60 -19 -12 -38 -23 -42 -23 -4 0 -43 -20 -86 -44 -44 -24
-97 -50 -118 -56 -21 -7 -43 -16 -48 -21 -25 -19 -201 -70 -325 -94 -74 -14
-145 -28 -157 -31 -47 -10 -18 -61 77 -134 18 -14 37 -29 44 -35 36 -31 94
-73 116 -85 14 -7 27 -16 30 -19 11 -13 192 -128 224 -142 12 -5 28 -13 36
-19 50 -32 231 -105 308 -125 35 -9 71 -20 80 -25 10 -5 80 -22 157 -36 178
-34 444 -39 590 -10 50 9 123 24 163 32 40 7 80 18 90 23 9 4 34 11 55 15 43
8 217 73 232 87 12 12 62 11 70 -1 24 -39 305 -120 414 -120 111 0 392 77 434
119 6 6 15 11 20 11 12 0 111 65 184 122 35 26 66 48 70 48 5 0 63 -112 131
-250 69 -141 131 -254 142 -260 37 -20 218 0 252 27 7 6 30 16 51 23 63 20 70
40 47 148 -11 51 -22 97 -25 101 -2 5 -13 53 -24 107 -11 55 -24 111 -29 125
-14 36 -26 143 -16 137 27 -16 166 -78 175 -78 5 0 23 -7 39 -15 16 -8 80 -23
142 -32 190 -28 329 -1 473 90 28 17 55 37 60 43 6 6 33 32 61 58 l52 47 106
-36 c143 -48 279 -68 456 -69 163 -1 265 16 390 64 80 31 155 64 180 80 8 6
26 15 40 21 68 28 259 176 412 318 31 29 100 102 155 163 54 61 113 126 131
146 33 36 41 65 20 78 -7 4 -89 8 -183 9 -160 1 -176 3 -272 32 -103 32 -170
62 -210 93 -34 27 -11 48 72 63 117 23 273 89 385 166 65 44 189 146 202 166
3 6 17 22 30 37 100 114 191 299 263 533 15 50 33 106 40 125 19 49 53 153 75
230 10 36 44 137 75 225 31 88 63 183 71 210 8 28 24 69 35 92 10 24 19 47 19
53 0 6 14 44 32 86 45 107 43 109 -143 94 -159 -12 -202 -18 -396 -53 -73 -13
-133 -20 -133 -16 0 4 9 23 19 41 10 18 24 58 31 88 7 30 17 64 23 75 6 12 14
147 18 320 7 269 10 312 33 418 15 66 35 139 46 163 30 65 17 84 -56 84 -61 0
-289 -26 -344 -40 -134 -32 -209 -53 -235 -65 -16 -7 -50 -19 -75 -25 -25 -7
-56 -18 -70 -25 -50 -27 -223 -105 -226 -102 -2 1 12 42 31 89 36 90 64 199
92 353 13 70 17 158 17 395 1 304 -11 486 -39 620 -8 36 -19 103 -25 150 -6
47 -16 101 -22 120 -6 19 -19 69 -29 110 -26 107 -58 222 -68 240 -4 8 -16 40
-24 71 -9 31 -24 69 -32 85 -8 16 -15 33 -15 37 0 13 -56 140 -111 252 -100
205 -236 411 -384 582 -49 58 -104 121 -121 141 l-31 37 7 135 c8 133 -1 341
-20 513 -18 156 -72 352 -137 502 -52 121 -65 129 -147 99z m-765 -2336 c123
-212 275 -381 434 -483 105 -68 266 -127 394 -146 l84 -12 -7 -156 c-3 -86 -9
-220 -13 -298 l-6 -141 25 -24 c33 -31 98 -127 98 -144 0 -8 4 -14 9 -14 11 0
32 -64 57 -168 55 -233 -88 -628 -295 -817 -30 -28 -64 -59 -75 -71 -12 -11
-37 -31 -56 -44 -19 -14 -39 -28 -45 -32 -26 -21 -93 -62 -120 -75 -16 -7 -37
-18 -45 -23 -70 -44 -343 -145 -471 -174 -35 -8 -82 -19 -104 -25 -81 -21
-324 -60 -450 -73 -191 -19 -702 -16 -830 4 -242 39 -414 88 -597 171 -38 16
-68 34 -68 38 0 5 12 16 28 26 31 19 77 67 114 115 107 145 145 304 136 587
-4 126 -7 145 -23 157 -26 19 -27 19 -87 -30 -29 -24 -80 -59 -113 -77 -60
-34 -61 -34 -190 -34 -129 0 -131 0 -206 36 -96 46 -159 110 -196 199 -25 59
-27 77 -28 190 0 116 2 129 28 183 15 32 27 60 27 63 0 14 91 115 140 156 56
47 157 118 168 118 6 0 24 12 135 86 32 21 73 48 91 59 66 41 234 185 311 267
119 126 187 220 255 353 l61 120 -7 -65 c-19 -190 -77 -367 -160 -490 -27 -40
-30 -62 -10 -79 32 -27 428 26 641 86 174 48 383 143 497 224 73 52 268 240
268 258 0 5 6 16 13 23 19 18 88 134 117 196 14 29 26 52 27 52 1 0 21 -33 44
-72z m2749 -2028 c0 -5 -9 -33 -19 -62 -36 -100 -49 -226 -56 -548 -2 -103
-10 -219 -18 -261 -14 -69 -67 -206 -86 -219 -5 -3 -13 -14 -19 -26 -11 -21
-79 -50 -171 -74 -24 -6 -60 -20 -80 -31 -20 -10 -42 -19 -49 -19 -7 0 -42
-13 -77 -30 -79 -37 -85 -37 -85 -2 0 43 -46 202 -73 252 -33 62 -87 140 -96
140 -4 0 -12 9 -17 20 -15 31 -143 128 -214 161 -36 17 -73 34 -82 40 -27 14
-215 32 -270 26 -79 -10 -67 7 83 116 112 81 196 137 205 137 4 0 15 7 25 16
10 9 31 23 48 32 17 10 76 43 131 75 55 31 103 57 106 57 3 0 27 11 53 24 26
12 65 29 86 36 22 7 45 16 50 20 35 28 303 96 485 123 53 8 140 7 140 -3z
m-1201 -725 c217 -59 399 -247 447 -460 16 -73 18 -201 3 -281 -13 -72 -75
-203 -126 -264 -78 -96 -198 -176 -308 -206 -27 -8 -91 -17 -140 -20 -193 -14
-358 50 -490 188 -163 170 -217 403 -147 625 36 112 80 180 168 263 100 94
201 145 344 174 42 8 192 -3 249 -19z m-1075 -175 c5 -34 1 -47 -30 -95 -59
-93 -97 -222 -110 -370 -9 -106 -20 -125 -29 -50 -21 168 36 398 133 531 23
32 28 30 36 -16z m-421 -10 c71 -45 118 -78 148 -102 11 -9 29 -23 41 -30 21
-14 21 -14 3 -104 -10 -49 -18 -124 -19 -166 -1 -43 -4 -78 -8 -78 -4 0 -34
20 -67 45 -59 45 -60 46 -79 128 l-19 82 -39 7 c-21 5 -127 11 -234 14 -160 5
-237 3 -425 -15 -126 -12 -252 -28 -280 -36 -27 -7 -84 -19 -125 -25 -41 -6
-87 -16 -102 -21 -14 -6 -61 -19 -105 -29 -87 -20 -144 -40 -155 -55 -4 -5 -8
-35 -8 -64 0 -43 -6 -63 -26 -93 -15 -21 -30 -38 -35 -38 -4 0 -11 -9 -14 -20
-3 -11 -15 -24 -25 -30 -16 -9 -19 -2 -29 65 -6 41 -26 114 -45 161 l-34 85
131 131 c122 120 134 129 162 124 60 -12 454 -18 575 -8 295 24 449 45 655 91
44 10 84 19 88 20 4 0 36 -17 70 -39z m-1970 -166 c179 -91 270 -232 301 -467
5 -43 4 -47 -9 -33 -8 8 -15 23 -15 33 0 25 -24 98 -51 158 -45 100 -140 204
-244 265 -43 26 -55 38 -55 58 0 18 15 15 73 -14z m5167 -41 c0 -10 -9 -37
-20 -61 -11 -24 -25 -62 -31 -85 -6 -23 -17 -55 -24 -72 -18 -42 -61 -171 -75
-225 -7 -25 -18 -58 -25 -75 -14 -34 -46 -129 -75 -225 -11 -36 -24 -74 -29
-85 -4 -11 -34 -99 -66 -195 -71 -218 -104 -294 -171 -395 -130 -196 -326
-340 -569 -418 -126 -40 -116 -46 -120 58 -4 110 -37 208 -102 305 -98 143
-191 211 -364 263 -157 48 -321 57 -594 32 -88 -9 -208 -18 -267 -22 l-106 -6
-99 73 c-54 40 -102 78 -108 85 -5 6 -19 17 -30 23 -16 9 14 11 139 12 124 0
196 6 323 27 l163 26 62 -30 c113 -54 169 -77 187 -76 10 1 34 13 55 26 39 27
41 27 135 -7 61 -22 117 -20 218 9 121 35 134 51 132 164 -2 69 1 85 15 93 24
14 126 116 157 158 45 61 82 142 109 245 23 85 31 102 56 117 40 24 94 48 108
48 7 0 16 4 21 9 15 15 142 61 221 80 39 10 75 20 80 24 38 23 543 113 652
116 34 1 42 -2 42 -16z m-3262 -88 c5 -5 13 -38 16 -71 l7 -61 -323 -6 c-178
-3 -345 -11 -373 -17 -27 -5 -97 -17 -155 -26 -58 -8 -123 -20 -145 -26 -22
-6 -76 -18 -120 -28 -44 -10 -111 -28 -150 -39 -38 -12 -76 -19 -82 -16 -9 3
-13 28 -13 77 l0 73 68 23 c37 12 99 29 137 37 39 7 82 18 96 23 14 6 70 15
125 22 54 6 142 18 194 25 139 21 160 22 447 21 160 -1 266 -5 271 -11z
m-2878 -123 c69 -17 148 -38 175 -47 224 -73 548 -217 538 -239 -4 -12 -67
-61 -149 -118 -146 -102 -369 -183 -594 -214 -63 -9 -121 -21 -127 -27 -24
-18 -13 -49 38 -108 28 -32 48 -62 45 -67 -5 -9 -79 -28 -155 -40 -60 -10 -69
-27 -48 -96 27 -86 85 -138 186 -170 51 -16 105 -26 143 -26 50 0 65 -4 90
-25 37 -32 101 -34 157 -5 l39 21 79 -44 c130 -72 139 -73 193 -35 77 54 212
172 293 254 93 96 242 282 309 387 28 42 54 77 58 77 5 0 39 -16 77 -36 37
-20 107 -57 156 -81 48 -25 87 -49 87 -54 0 -4 -8 -14 -18 -21 -30 -22 -102
-114 -102 -130 0 -9 7 -21 15 -28 27 -22 16 -35 -52 -59 -38 -13 -96 -37 -131
-53 -35 -16 -73 -33 -85 -39 -12 -5 -44 -23 -72 -39 -27 -16 -64 -36 -82 -44
-28 -14 -46 -25 -126 -79 -11 -6 -42 -29 -70 -50 -29 -20 -63 -45 -77 -55 -27
-19 -216 -177 -241 -201 -10 -9 -67 -65 -127 -125 l-111 -109 -143 -4 c-200
-6 -422 16 -563 57 -60 18 -114 35 -120 40 -5 4 -26 13 -46 19 -65 21 -225
109 -311 170 -73 52 -199 167 -248 227 -37 44 -167 195 -229 263 -101 115
-351 362 -403 401 -26 19 -48 37 -48 40 0 3 37 18 83 34 45 15 102 37 127 48
103 47 376 184 388 195 6 6 22 15 34 19 12 3 76 37 142 73 67 37 137 73 156
81 19 7 40 18 47 23 12 8 98 34 213 63 41 10 112 13 270 10 200 -3 223 -5 340
-34z m3580 -102 c0 -10 -10 -25 -22 -31 -43 -22 -68 -53 -75 -92 -3 -21 -12
-41 -19 -44 -46 -17 -134 53 -134 106 0 40 23 41 40 1 12 -28 44 -60 61 -60 4
0 10 12 14 27 9 36 40 75 78 95 42 23 57 22 57 -2z m20 -127 c0 -10 -7 -27
-15 -37 -21 -28 -19 -72 5 -96 11 -11 23 -20 28 -20 4 0 22 -13 40 -29 26 -25
32 -37 32 -71 0 -34 -3 -41 -17 -38 -11 2 -19 14 -21 30 -3 26 -66 88 -90 88
-9 0 -24 30 -37 77 -6 23 18 93 38 105 20 13 37 9 37 -9z m-2412 -131 c3 -39
-1 -47 -36 -83 -22 -21 -44 -39 -48 -39 -5 0 -20 16 -34 36 -30 42 -82 66
-135 62 -30 -2 -41 1 -43 13 -3 18 24 29 73 29 36 0 101 -33 126 -63 16 -20
19 -21 34 -6 9 9 19 35 22 58 4 31 10 41 22 39 11 -2 17 -16 19 -46z m1281 30
c5 -9 12 -34 16 -55 6 -32 5 -37 -12 -37 -10 0 -24 -5 -30 -11 -14 -14 -32 1
-56 50 -22 44 -21 50 6 61 36 14 66 11 76 -8z m864 -51 c45 -37 107 -84 137
-104 30 -20 82 -55 115 -77 74 -50 165 -108 179 -114 48 -20 -152 -46 -352
-46 -193 0 -294 14 -328 45 l-26 24 21 27 c28 36 17 53 -63 88 -36 16 -66 35
-66 42 0 6 36 30 80 53 43 22 108 61 142 85 35 24 67 45 71 45 5 1 45 -30 90
-68z m-2320 -109 c37 -38 44 -83 22 -132 -10 -22 -21 -40 -25 -40 -14 0 -29
-51 -24 -79 7 -36 -13 -52 -33 -26 -28 40 -12 94 44 153 28 29 7 98 -32 108
-58 14 -101 -21 -97 -78 2 -22 -2 -28 -18 -28 -17 0 -20 7 -20 43 0 35 6 49
31 75 26 27 39 32 78 32 39 0 52 -5 74 -28z m2784 -39 c9 -23 -34 -58 -53 -42
-11 9 -11 15 3 35 18 28 41 31 50 7z m106 -78 c18 -13 18 -14 -2 -24 -40 -22
-75 -5 -51 24 15 18 30 18 53 0z m-919 -3 c3 -5 -18 -31 -45 -60 -44 -46 -52
-50 -69 -40 -28 18 -26 25 22 69 40 36 80 50 92 31z m1612 -107 c-4 -15 -18
-26 -47 -34 -58 -18 -140 -25 -184 -17 -69 13 -27 44 123 91 51 16 96 34 100
40 9 13 15 -51 8 -80z m-1497 -66 c44 -33 83 -64 85 -68 6 -8 -42 -91 -52 -91
-20 1 -131 48 -154 65 -15 12 -28 34 -32 56 -5 30 -2 41 21 66 16 17 33 32 40
32 6 1 48 -26 92 -60z m-305 27 c39 -16 86 -79 86 -114 0 -31 -16 -60 -53 -99
-27 -29 -37 -33 -82 -33 -41 0 -56 5 -81 28 -17 16 -37 45 -44 66 -18 55 8
119 58 146 45 23 72 25 116 6z m-1919 -38 c37 -16 55 -29 55 -40 0 -22 -26
-23 -46 -4 -17 18 -94 31 -123 21 -28 -8 -81 -54 -81 -68 0 -7 -8 -22 -18 -35
-17 -22 -19 -22 -55 -7 -84 35 -185 10 -224 -56 -10 -16 -21 -29 -25 -29 -4 0
-8 -9 -8 -19 0 -25 -18 -37 -33 -22 -21 21 38 115 94 151 45 29 54 31 116 27
37 -2 78 -7 91 -12 16 -5 22 -3 22 6 1 20 42 65 82 89 43 26 84 25 153 -2z
m790 -18 c32 -11 63 -24 69 -29 6 -4 20 -11 31 -14 11 -3 72 -24 135 -47 136
-49 258 -85 392 -113 l98 -20 74 46 75 46 15 -24 c18 -27 16 -29 -82 -94 -70
-45 -86 -48 -175 -26 -34 8 -98 23 -142 34 -140 33 -336 95 -383 120 -9 6 -51
24 -92 42 -41 18 -83 39 -93 47 -16 14 -16 16 -1 34 20 22 10 22 79 -2z
m-1381 -63 c9 -36 7 -44 -20 -76 -22 -26 -29 -29 -46 -20 -20 11 -20 11 1 30
13 12 21 32 21 53 0 18 3 35 6 39 11 10 32 -4 38 -26z m-213 -79 c40 -35 96
-82 125 -106 30 -24 54 -48 54 -53 0 -19 -61 -9 -84 15 -21 20 -36 24 -120 28
-75 4 -106 10 -142 29 -44 23 -113 93 -102 104 4 4 130 33 190 44 4 0 40 -27
79 -61z m3164 21 c-16 -30 -35 -39 -35 -16 0 19 30 58 41 52 5 -4 2 -19 -6
-36z m-2396 22 c12 -8 13 -12 1 -26 -7 -9 -19 -14 -26 -11 -25 10 -84 -15
-106 -44 -21 -29 -23 -30 -87 -24 -84 8 -132 -10 -162 -61 -12 -20 -29 -35
-40 -35 -26 0 -24 17 8 63 40 57 89 79 174 75 65 -2 71 0 92 24 12 14 31 31
42 37 25 13 85 14 104 2z m906 -93 c28 -11 64 -26 80 -33 80 -35 350 -106 496
-130 93 -15 110 -11 209 55 93 61 91 60 151 43 45 -13 63 -14 111 -4 54 11 61
10 111 -14 30 -14 59 -25 66 -25 7 0 21 -5 32 -10 19 -11 19 -11 -3 -43 -104
-147 -309 -357 -349 -357 -9 0 -43 14 -75 31 -107 57 -97 58 -174 -23 l-68
-72 -78 23 c-44 13 -83 27 -89 31 -5 3 -32 15 -60 25 -54 19 -231 99 -255 115
-8 5 -33 19 -55 31 -40 22 -271 174 -313 207 l-23 18 47 84 c70 127 65 124
133 93 31 -14 79 -34 106 -45z m1595 30 c0 -6 -7 -7 -16 -4 -9 3 -18 6 -20 6
-3 0 -3 4 1 10 7 11 35 2 35 -12z m-354 -9 c40 -24 37 -52 -4 -39 -58 17 -62
21 -51 41 12 24 14 24 55 -2z m-1546 -38 c0 -4 -9 -20 -20 -34 -11 -14 -20
-29 -20 -33 0 -4 -10 -21 -23 -38 -22 -30 -144 -232 -178 -296 -9 -17 -29 -48
-43 -70 -14 -22 -26 -46 -26 -54 0 -19 48 -53 102 -71 24 -8 52 -19 63 -24 35
-16 180 -59 221 -66 21 -3 48 -8 60 -10 17 -4 64 -76 64 -99 0 -4 12 -32 26
-63 25 -51 26 -63 20 -138 -20 -270 -149 -569 -319 -745 -108 -112 -222 -200
-331 -255 -21 -11 -52 -28 -70 -37 -17 -9 -39 -17 -48 -18 -9 0 -19 -4 -23 -9
-3 -5 -36 -19 -73 -32 -37 -12 -71 -24 -77 -27 -37 -22 -244 -64 -380 -77
-331 -34 -646 14 -901 135 -23 11 -44 20 -47 20 -4 0 -56 28 -117 63 -61 34
-130 72 -152 85 -23 13 -63 40 -89 60 -26 20 -72 55 -103 76 -73 53 -76 63
-18 72 26 4 58 11 72 16 14 6 57 18 95 28 116 30 213 69 354 142 295 152 562
365 851 679 187 203 341 345 546 504 128 99 293 198 450 270 124 57 134 61
134 46z m1647 -145 c-13 -33 -115 -166 -176 -229 -70 -73 -255 -231 -334 -285
-46 -32 -49 -33 -105 -24 -123 21 -310 76 -397 117 -252 120 -345 168 -410
209 -155 100 -229 156 -233 178 -2 11 29 -5 90 -45 52 -34 113 -73 137 -87 23
-14 57 -34 74 -45 64 -41 346 -175 412 -195 22 -7 45 -16 50 -20 6 -4 33 -13
60 -19 28 -7 68 -20 90 -28 22 -8 71 -21 109 -28 74 -14 88 -11 140 37 11 10
23 18 26 18 4 0 18 10 31 21 13 12 44 38 68 58 99 80 296 295 330 359 13 25
47 31 38 8z m113 -15 c0 -5 -7 -14 -15 -21 -16 -14 -18 -10 -9 14 6 17 24 22
24 7z m787 -32 c116 -16 300 -79 373 -129 14 -9 45 -30 70 -46 25 -16 65 -44
90 -63 61 -47 220 -209 220 -225 0 -17 -86 -26 -240 -26 -124 0 -564 51 -598
69 -14 7 -18 18 -14 41 5 36 -12 59 -102 127 -66 52 -135 89 -180 98 -17 4
-39 9 -49 12 -13 3 -43 -21 -107 -86 -49 -50 -93 -91 -98 -91 -5 0 -13 21 -17
48 -3 26 -13 70 -21 97 l-15 50 38 30 c21 17 56 47 78 67 l40 37 227 1 c125 0
262 -5 305 -11z m-2543 -107 c80 -62 94 -71 249 -162 42 -25 77 -49 77 -53 0
-14 -255 22 -333 47 -23 8 -64 19 -92 27 -27 7 -53 17 -56 22 -4 6 1 24 12 41
10 17 30 52 45 79 15 26 29 47 32 47 2 0 32 -21 66 -48z m1810 -134 c9 -40 26
-118 36 -173 65 -345 72 -365 125 -331 22 14 25 14 47 -3 l23 -19 -56 -108
-56 -107 -69 -28 c-54 -22 -86 -28 -146 -28 l-77 -1 -40 43 c-32 35 -107 124
-164 197 -26 33 -147 218 -147 225 0 4 -9 18 -20 32 -11 14 -20 33 -20 42 0
23 154 148 220 178 30 14 111 54 180 88 69 35 130 63 135 64 6 1 19 -32 29
-71z m-663 -92 c17 -11 18 -15 5 -25 -12 -10 -20 -10 -38 3 -38 27 -85 20
-118 -15 -22 -25 -31 -29 -46 -21 -16 9 -12 15 33 61 l51 51 47 -20 c26 -11
55 -26 66 -34z m974 22 c14 -6 25 -15 25 -19 0 -4 10 -9 23 -13 12 -3 36 -19
52 -36 l30 -31 -25 -19 c-14 -11 -28 -20 -31 -20 -7 0 -109 135 -109 144 0 8
6 8 35 -6z m-1034 -58 c24 -13 24 -22 1 -37 -11 -7 -32 -8 -52 -4 l-34 7 24
22 c27 25 33 26 61 12z m915 -23 c10 -12 41 -49 68 -80 26 -32 46 -60 43 -63
-3 -3 -30 10 -62 28 -31 18 -72 42 -91 52 -40 23 -42 32 -12 63 27 28 30 28
54 0z m-1186 -127 c30 -10 83 -24 117 -30 l62 -12 6 -67 c4 -36 11 -82 15
-101 5 -19 16 -91 25 -160 8 -69 22 -163 30 -210 8 -47 15 -109 17 -138 l3
-54 -50 -19 c-94 -37 -260 -81 -321 -86 l-61 -5 -137 278 c-75 154 -145 295
-155 314 -10 19 -22 49 -25 67 -4 17 -14 37 -22 44 -8 6 -14 17 -14 23 0 6
-14 40 -30 74 -17 35 -30 68 -30 74 0 6 24 7 62 4 55 -5 326 18 353 29 17 7
97 -6 155 -25z m1792 0 c173 -29 412 -43 580 -36 123 6 148 5 155 -8 10 -17
91 -73 149 -103 128 -66 272 -101 432 -106 44 -1 84 -5 87 -9 14 -14 -203
-239 -350 -363 -204 -171 -356 -259 -550 -316 -113 -34 -190 -42 -355 -36
-127 5 -176 11 -270 35 -63 17 -128 37 -145 46 -16 9 -36 16 -42 16 -26 0
-145 68 -208 118 -5 4 -27 20 -48 36 -38 29 -137 146 -137 163 0 5 19 18 43
30 40 20 46 29 160 254 65 129 125 239 133 245 8 7 33 9 58 7 38 -5 47 -1 77
25 38 35 26 35 231 2z m-1388 -93 c41 -75 82 -137 147 -222 21 -27 45 -59 53
-70 60 -80 161 -191 179 -198 12 -5 68 -7 125 -5 l102 3 20 -32 c34 -56 167
-189 233 -231 108 -71 102 -63 70 -95 -38 -37 -116 -97 -127 -97 -5 0 -17 -6
-25 -14 -9 -7 -49 -25 -90 -40 -106 -37 -256 -37 -380 0 -106 32 -288 120
-306 148 -7 12 -16 38 -20 60 -3 21 -10 46 -15 55 -5 9 -16 75 -25 146 -9 72
-23 175 -31 230 -20 138 -53 390 -51 390 1 0 20 10 42 22 22 12 45 22 50 22 6
0 28 -32 49 -72z m874 -52 c-13 -29 -25 -31 -50 -8 -27 25 -22 33 22 33 39 0
39 -1 28 -25z m-4925 -255 c20 -14 37 -31 37 -37 0 -34 -85 5 -155 71 -41 38
-47 47 -36 60 11 14 19 10 65 -27 29 -23 69 -53 89 -67z m3173 -7 c9 -21 63
-132 120 -248 101 -200 120 -239 153 -295 8 -13 15 -37 17 -53 1 -15 14 -51
28 -79 14 -27 26 -53 26 -57 0 -8 -142 -116 -205 -157 -99 -63 -248 -118 -368
-135 -136 -19 -313 11 -434 73 -23 11 -31 28 -14 28 45 0 341 253 385 328 6
11 29 46 51 78 87 127 166 324 196 487 7 37 16 67 21 67 5 0 16 -17 24 -37z
m801 -610 c9 -7 14 -16 10 -19 -5 -6 -102 37 -214 94 -35 18 -41 27 -20 35 11
4 182 -80 224 -110z m-197 -3 c0 -12 -74 -110 -118 -156 -35 -37 -35 -1 0 45
10 13 18 27 18 32 0 4 14 30 31 58 27 43 34 49 50 40 11 -5 19 -14 19 -19z
m123 -50 c26 -13 47 -27 47 -30 0 -4 -51 -60 -113 -125 -72 -76 -118 -116
-125 -111 -7 4 -19 23 -27 43 -16 38 -16 39 33 93 12 14 46 55 74 93 29 37 55
66 58 64 3 -1 26 -13 53 -27z m133 -167 c3 -16 10 -41 15 -57 5 -16 9 -31 9
-32 0 -9 -25 -3 -70 17 l-50 21 37 39 c21 22 41 39 45 39 4 0 10 -12 14 -27z
m-73 -188 c42 -15 77 -33 77 -39 0 -7 -17 -28 -37 -48 l-38 -35 -83 16 c-73
14 -86 19 -98 43 -13 26 -12 29 18 63 38 41 42 41 161 0z"/>
<path d="M6882 7499 c-40 -12 -109 -55 -142 -90 -14 -14 -38 -50 -55 -80 -28
-51 -30 -61 -30 -164 0 -96 3 -116 23 -155 33 -63 84 -113 150 -146 53 -27 65
-29 172 -29 99 0 121 3 162 23 151 74 217 242 159 407 -21 59 -20 62 35 84 18
7 44 26 60 42 23 24 26 33 18 47 -17 27 -53 27 -83 -1 -14 -13 -41 -29 -60
-36 -36 -12 -39 -10 -91 38 -8 8 -39 25 -68 39 -61 27 -193 39 -250 21z"/>
<path d="M4990 7141 c-80 -12 -186 -45 -257 -78 -60 -29 -193 -128 -193 -144
0 -5 -18 -14 -41 -20 -46 -14 -119 -1 -146 26 -20 21 -40 19 -53 -5 -17 -31 5
-59 66 -86 30 -13 61 -24 70 -24 12 0 13 -4 3 -22 -7 -13 -18 -29 -26 -36 -37
-38 -24 -101 27 -127 30 -16 33 -15 66 7 19 13 34 26 34 29 0 6 75 83 106 109
76 64 151 106 254 143 79 29 95 31 225 31 118 1 154 -3 229 -23 l89 -25 28 32
c21 23 29 43 29 70 0 46 -32 100 -62 106 -13 3 -55 12 -95 20 -86 19 -278 28
-353 17z"/>
<path d="M6092 6934 c-45 -31 -19 -77 40 -71 46 5 58 14 58 42 0 42 -56 59
-98 29z"/>
<path d="M6379 6726 c-2 -3 -79 -14 -171 -25 -91 -12 -172 -23 -179 -26 -8 -2
-88 -14 -178 -25 -90 -12 -172 -25 -182 -30 -20 -11 -50 -96 -79 -225 -34
-149 -42 -234 -37 -360 4 -103 9 -130 35 -193 52 -126 133 -205 266 -258 66
-26 80 -28 206 -28 115 1 149 5 230 28 259 73 383 206 397 426 8 137 -43 315
-153 534 -79 156 -100 186 -127 186 -13 0 -26 -2 -28 -4z m31 -116 c7 -16 16
-30 21 -30 5 0 9 -5 9 -11 0 -5 22 -56 48 -112 129 -272 154 -499 68 -621 -95
-133 -264 -201 -501 -200 -99 1 -130 5 -178 23 -77 30 -134 75 -178 140 -61
91 -80 215 -60 399 12 104 62 336 76 350 3 4 50 12 103 18 173 20 426 55 467
63 22 5 56 9 76 10 32 1 38 -3 49 -29z"/>
<path d="M7517 6554 c-13 -13 -7 -38 21 -94 45 -89 62 -110 87 -110 31 0 40
30 20 72 -45 97 -70 133 -95 136 -14 2 -29 0 -33 -4z"/>
<path d="M7280 6505 c-12 -14 -8 -26 61 -154 21 -40 40 -54 63 -45 28 11 26
39 -4 94 -16 30 -35 66 -42 80 -21 42 -55 53 -78 25z"/>
<path d="M4925 6231 c-3 -6 -17 -49 -31 -96 -20 -71 -22 -88 -12 -105 14 -23
41 -26 55 -7 6 6 14 30 18 52 3 21 13 52 21 68 9 15 14 43 12 60 -2 26 -8 33
-30 35 -14 2 -29 -2 -33 -7z"/>
<path d="M6196 3585 c-13 -36 -7 -55 19 -55 31 0 34 29 6 54 -17 15 -19 15
-25 1z"/>
<path d="M6322 3502 c-23 -4 -51 -46 -39 -59 4 -3 17 3 30 15 13 12 29 22 35
22 13 0 16 17 5 22 -5 2 -18 2 -31 0z"/>
<path d="M6210 3475 c0 -16 6 -25 15 -25 9 0 15 9 15 25 0 16 -6 25 -15 25 -9
0 -15 -9 -15 -25z"/>
<path d="M6100 3467 c-25 -11 -25 -11 10 -15 19 -2 39 -8 45 -13 11 -11 35
-12 35 -1 0 7 -53 43 -62 41 -1 0 -14 -5 -28 -12z"/>
</g>
</svg>
