<?xml version="1.0" encoding="iso-8859-1"?>
<!-- Generator: Adobe Illustrator 18.0.0, SVG Export Plug-In . SVG Version: 6.00 Build 0)  -->
<!DOCTYPE svg PUBLIC "-//W3C//DTD SVG 1.1//EN" "http://www.w3.org/Graphics/SVG/1.1/DTD/svg11.dtd">
<svg version="1.1" id="Capa_1" xmlns="http://www.w3.org/2000/svg" xmlns:xlink="http://www.w3.org/1999/xlink" x="0px" y="0px"
	 viewBox="0 0 395 395" style="enable-background:new 0 0 395 395;" xml:space="preserve">
<g>
	<path d="M313.002,0H82C36.785,0,0,36.784,0,81.998v230.993C0,358.211,36.785,395,82,395h231.002
		C358.216,395,395,358.211,395,312.991V81.998C395,36.784,358.216,0,313.002,0z M380,312.991C380,349.94,349.944,380,313.002,380H82
		c-36.944,0-67-30.06-67-67.009V81.998C15,45.055,45.056,15,82,15h231.002C349.944,15,380,45.055,380,81.998V312.991z"/>
	<path d="M301.475,102.683L92.09,102.678v116.117c0,17.369,14.078,31.45,31.457,31.45h128.709c17.367,0,31.449-14.081,31.449-31.45
		v-13.501h17.77c20.593,0,37.346-16.753,37.346-37.346v-27.919C338.82,119.437,322.067,102.683,301.475,102.683z M308.215,167.948
		c0,3.717-3.023,6.742-6.74,6.742h-17.77v-41.402h17.77c3.717,0,6.74,3.024,6.74,6.742V167.948z"/>
	<path d="M311.906,264.024H71.482c-3.397,0-6.151,2.754-6.151,6.151c0,15.603,12.693,28.298,28.296,28.298H289.75
		c15.608,0,28.308-12.694,28.308-28.298C318.058,266.778,315.304,264.024,311.906,264.024z"/>
</g>
<g>
</g>
<g>
</g>
<g>
</g>
<g>
</g>
<g>
</g>
<g>
</g>
<g>
</g>
<g>
</g>
<g>
</g>
<g>
</g>
<g>
</g>
<g>
</g>
<g>
</g>
<g>
</g>
<g>
</g>
</svg>
