<?xml version="1.0" standalone="no"?>
<!DOCTYPE svg PUBLIC "-//W3C//DTD SVG 20010904//EN"
 "http://www.w3.org/TR/2001/REC-SVG-20010904/DTD/svg10.dtd">
<svg version="1.0" xmlns="http://www.w3.org/2000/svg"
 width="1200.000000pt" height="1200.000000pt" viewBox="0 0 1200.000000 1200.000000"
 preserveAspectRatio="xMidYMid meet">

<g transform="translate(0.000000,1200.000000) scale(0.100000,-0.100000)"
fill="#000000" stroke="none">
<path d="M6907 9607 c-11 -29 -123 -149 -185 -200 -37 -29 -96 -70 -132 -89
-59 -33 -229 -98 -257 -98 -6 0 -71 37 -145 82 -73 45 -153 93 -178 107 -25
13 -58 35 -75 47 -60 44 -90 55 -111 40 -18 -13 -17 -16 8 -67 14 -30 39 -92
54 -139 25 -76 29 -99 29 -218 l0 -133 -45 -41 c-25 -23 -57 -52 -71 -65 l-26
-24 -121 17 c-109 16 -142 17 -339 6 -263 -15 -565 -39 -654 -52 -35 -5 -165
-22 -287 -39 -362 -50 -345 -45 -403 -104 -27 -28 -69 -78 -93 -112 -62 -86
-173 -300 -201 -387 -38 -118 -69 -188 -101 -227 -7 -9 -40 -52 -72 -96 l-59
-80 -17 -130 c-36 -272 -33 -258 -78 -324 -68 -100 -116 -173 -143 -221 -14
-25 -50 -85 -79 -134 -30 -49 -64 -111 -77 -138 -22 -48 -23 -51 -5 -63 25
-19 38 -11 70 39 15 24 35 52 44 62 9 11 30 36 45 57 15 20 69 79 118 130 70
72 92 89 98 77 16 -28 59 -217 66 -286 5 -54 2 -84 -14 -138 -21 -70 -17 -96
14 -96 28 0 42 37 125 350 15 58 38 138 50 179 14 47 20 88 16 110 -9 57 16
95 82 124 31 14 82 32 112 41 196 54 390 124 575 209 66 31 108 44 123 40 12
-3 22 -7 22 -10 0 -3 -14 -24 -31 -48 -34 -47 -35 -78 -3 -83 16 -2 33 10 59
43 42 50 51 53 35 9 -28 -72 29 -103 61 -34 9 19 28 46 41 60 l23 26 110 -9
c61 -5 112 -11 114 -12 2 -2 -4 -25 -13 -51 -22 -65 -21 -91 5 -99 27 -9 42 8
57 61 7 22 21 49 32 59 18 16 24 17 72 4 53 -14 53 -15 59 -59 15 -123 126
-226 396 -366 122 -64 265 -129 358 -164 377 -142 405 -149 405 -101 0 14 -14
28 -42 42 -23 12 -54 29 -68 39 -14 9 -58 39 -99 66 -94 63 -351 314 -351 343
0 5 33 11 73 14 39 3 94 13 120 23 26 9 50 14 53 11 3 -3 -6 -25 -20 -50 -30
-51 -33 -83 -8 -95 19 -10 136 0 252 22 166 32 291 49 299 40 15 -16 41 -186
41 -266 0 -42 -5 -100 -11 -129 -9 -43 -9 -54 5 -67 14 -15 22 -14 90 3 42 10
79 19 83 19 4 1 10 -46 13 -104 l5 -105 55 -5 c66 -6 74 -11 105 -61 31 -48
31 -67 2 -78 -39 -15 -124 -122 -172 -217 -63 -126 -83 -247 -64 -389 13 -95
15 -100 39 -103 27 -3 48 16 180 168 67 76 79 86 125 97 64 15 154 16 211 2
53 -14 112 -71 132 -127 20 -57 26 -179 13 -244 -28 -135 -180 -246 -420 -309
-103 -26 -118 -25 -170 19 -86 73 -111 76 -154 19 -79 -103 -201 -192 -367
-270 -93 -44 -250 -102 -327 -121 -32 -8 -83 -21 -113 -29 -30 -8 -91 -20
-135 -27 -44 -6 -118 -18 -165 -26 -47 -8 -128 -21 -180 -29 -52 -8 -124 -19
-160 -25 -36 -5 -139 -10 -230 -10 -91 0 -185 -5 -210 -12 -62 -15 -250 -15
-335 1 -213 38 -300 55 -390 78 -64 16 -113 23 -137 19 -20 -3 -39 -2 -42 3
-4 5 -44 28 -91 50 -248 118 -359 280 -372 541 -5 106 -4 120 17 160 12 25 40
64 63 87 l40 42 -6 307 c-6 258 -9 310 -22 323 -12 12 -20 13 -32 5 -16 -10
-17 -38 -14 -313 l3 -302 -37 -40 c-64 -71 -79 -118 -79 -244 1 -129 32 -259
85 -353 59 -104 183 -210 312 -267 31 -13 57 -28 57 -32 0 -5 -44 -24 -97 -43
-88 -32 -98 -38 -98 -60 0 -24 2 -25 63 -22 l64 4 63 -66 c37 -39 74 -68 91
-71 89 -20 167 -51 226 -92 110 -75 109 -71 30 -134 -37 -30 -97 -88 -132
-129 -81 -95 -327 -314 -448 -398 -43 -31 -55 -54 -38 -77 12 -17 16 -17 77
-1 90 22 196 21 267 -4 48 -17 70 -34 144 -113 48 -50 88 -95 88 -98 0 -17
-42 -274 -45 -278 -3 -2 -56 32 -120 75 -63 43 -136 92 -161 109 l-46 29 -23
-26 c-62 -72 -89 -331 -51 -485 17 -69 20 -74 70 -106 58 -38 126 -80 188
-118 24 -14 75 -45 113 -69 39 -24 79 -49 90 -55 20 -12 34 -36 106 -175 36
-71 39 -80 39 -165 0 -49 3 -99 6 -110 6 -24 58 -60 101 -69 29 -7 32 -11 38
-59 3 -29 17 -113 30 -187 27 -152 65 -432 65 -478 0 -18 6 -32 16 -36 9 -3
114 -6 234 -6 168 0 220 3 228 13 17 21 30 94 57 322 23 189 37 297 51 393 4
27 9 32 33 32 35 0 51 19 80 95 13 33 27 64 31 68 4 4 19 -25 35 -65 16 -40
33 -76 39 -80 6 -4 27 -8 47 -8 l37 0 16 -67 c9 -38 23 -111 31 -163 9 -52 22
-120 30 -150 8 -30 24 -119 35 -198 12 -79 24 -150 27 -158 9 -24 47 -27 281
-21 200 4 227 7 239 23 10 14 11 93 6 381 l-6 363 21 0 c39 0 52 11 52 45 0
18 11 49 26 70 14 21 35 59 48 84 12 25 27 55 34 66 6 11 30 59 53 108 22 48
45 87 49 87 5 0 26 -20 47 -44 74 -85 430 -476 540 -593 l42 -45 113 -14 c62
-7 176 -23 253 -34 169 -24 411 -50 463 -50 33 0 41 6 75 51 58 81 56 85 -85
167 -117 67 -213 128 -295 188 -59 43 -157 118 -163 124 -3 3 -61 50 -130 105
-68 55 -132 107 -141 115 -9 8 -34 29 -55 47 -149 123 -264 227 -468 423 -165
159 -151 136 -113 183 36 44 157 206 201 268 28 40 30 41 74 34 24 -4 56 -12
69 -18 23 -10 29 -6 83 49 32 32 183 182 334 333 152 150 276 277 276 281 0
18 -33 41 -49 34 -37 -16 -191 -57 -196 -53 -3 3 16 59 41 125 25 65 59 155
76 199 16 44 37 96 45 116 16 40 10 79 -13 79 -8 0 -33 -12 -57 -26 -59 -36
-117 -74 -150 -96 -16 -11 -31 -18 -33 -15 -3 2 0 106 5 231 6 124 8 233 5
241 -14 35 -50 13 -124 -76 -105 -127 -220 -249 -234 -248 -10 0 -62 62 -113
135 -21 31 -22 34 -8 81 18 58 23 67 52 82 21 11 24 9 39 -22 18 -38 66 -74
109 -82 27 -5 33 -1 55 37 76 129 187 198 318 198 29 0 67 6 85 14 58 25 234
214 344 368 26 37 52 66 58 64 11 -3 17 -27 40 -161 10 -55 23 -106 29 -112 6
-7 52 -20 101 -29 99 -18 337 -81 429 -114 105 -38 142 -60 207 -125 35 -36
79 -77 97 -91 32 -25 34 -25 47 -8 10 14 10 24 2 39 -17 32 49 -30 267 -249
l198 -200 -43 -21 c-116 -58 -468 -167 -603 -186 -45 -6 -101 -14 -125 -18
-52 -7 -74 -32 -50 -57 15 -14 26 -14 135 1 66 10 137 23 159 30 22 7 65 19
95 26 57 13 306 97 422 142 l67 26 47 -52 c111 -124 203 -260 260 -388 25 -55
29 -77 29 -151 0 -81 -2 -88 -31 -125 -16 -21 -57 -52 -90 -69 -107 -55 -78
-92 57 -70 258 43 440 186 569 447 22 44 66 110 98 147 53 60 152 200 152 215
0 3 13 34 29 69 55 119 78 290 61 438 -13 107 -26 161 -64 272 -15 43 -25 82
-21 87 3 6 20 5 43 -3 66 -24 89 5 53 65 l-20 32 57 67 c66 78 136 169 227
295 35 50 78 108 95 131 16 23 30 46 30 51 0 6 7 16 15 23 21 18 45 69 39 85
-8 20 -30 25 -47 12 -8 -7 -36 -45 -63 -85 -27 -41 -61 -92 -76 -114 -50 -75
-142 -199 -198 -267 -30 -37 -66 -81 -80 -99 -14 -17 -30 -32 -35 -32 -12 0
-105 180 -105 202 0 8 11 14 28 13 26 0 27 2 30 55 3 64 -48 277 -98 406 -20
53 -30 96 -30 134 0 44 -4 58 -20 68 -24 15 -25 37 -5 107 19 64 58 119 119
171 50 42 58 70 24 83 -44 17 -97 85 -213 271 -12 19 -42 71 -67 115 -25 44
-56 100 -70 125 -14 25 -79 149 -143 275 -120 235 -170 327 -216 396 -9 13
-36 58 -60 99 -49 84 -147 230 -212 314 -42 55 -150 181 -201 234 -65 68 -251
232 -264 232 -5 0 -15 7 -22 15 -18 22 -206 145 -300 197 -25 14 -115 65 -200
115 -218 125 -389 207 -500 239 -203 58 -289 83 -400 118 -63 20 -140 43 -170
51 -30 7 -104 30 -164 49 -115 38 -161 44 -169 23z m-582 -671 c110 -37 205
-73 212 -79 15 -15 44 -115 35 -120 -4 -3 -44 0 -89 5 -83 9 -119 26 -214 101
-15 12 -47 36 -71 53 -117 83 -120 85 -107 100 7 8 17 13 23 11 6 -2 101 -34
211 -71z m-265 -26 c33 -25 23 -32 -41 -28 l-54 3 25 23 c29 27 38 27 70 2z
m167 -124 l28 -25 -159 -1 c-148 0 -236 11 -236 31 0 14 25 17 182 18 153 2
157 1 185 -23z m3849 -2632 c-9 -78 -55 -209 -87 -247 l-27 -32 -1 95 c-2 90
0 95 30 139 33 48 79 101 87 101 3 0 2 -25 -2 -56z m-3253 -877 c-7 -36 -80
-116 -146 -160 -28 -19 -61 -44 -72 -54 -11 -10 -45 -37 -75 -60 -30 -23 -84
-69 -120 -103 -65 -60 -65 -61 -70 -34 -10 51 -37 48 -172 -19 -68 -34 -142
-68 -164 -76 -21 -8 -63 -25 -92 -38 -29 -13 -58 -21 -64 -17 -6 4 -8 3 -5 -4
7 -9 -66 -29 -77 -20 -2 1 -12 -5 -23 -14 -19 -18 -314 -95 -543 -142 -202
-42 -343 -57 -554 -61 -215 -3 -216 -3 -216 -60 0 -38 43 -81 132 -131 70 -40
118 -55 257 -79 86 -15 95 -15 118 0 20 13 23 22 18 43 -4 15 -8 29 -10 31 -2
2 -41 7 -86 12 -107 10 -135 17 -189 41 -24 11 -56 25 -70 32 -22 9 -14 11 55
13 87 3 255 18 350 33 206 32 275 45 405 76 195 48 457 125 485 145 6 3 23 9
38 13 15 4 56 20 89 36 34 17 66 30 71 30 5 0 25 7 44 16 33 16 35 16 49 -5
23 -33 40 -30 169 30 38 18 86 53 129 96 91 88 96 75 29 -75 -12 -29 -23 -57
-23 -62 0 -5 -10 -15 -22 -21 -13 -7 -51 -35 -85 -63 -95 -79 -134 -110 -209
-167 -138 -106 -234 -191 -234 -210 0 -10 10 -25 22 -33 l22 -16 -34 -37 c-73
-80 -231 -233 -240 -233 -10 0 -80 88 -80 100 0 4 -12 15 -26 24 -24 16 -27
16 -67 -7 -23 -14 -59 -41 -80 -61 -21 -20 -42 -36 -47 -36 -10 0 -50 -63 -50
-79 0 -6 16 -29 36 -51 20 -22 35 -42 33 -43 -9 -8 -96 -29 -196 -49 -98 -20
-140 -22 -443 -23 -331 -1 -368 -4 -432 -36 -10 -5 -24 -9 -32 -9 -7 0 -19 -7
-26 -15 -7 -8 -18 -15 -25 -15 -23 0 -211 177 -200 189 4 3 17 -6 30 -21 26
-30 41 -35 71 -25 61 21 9 99 -102 153 -56 28 -65 29 -196 29 l-137 0 22 20
c78 69 156 135 162 135 3 0 18 14 32 30 14 17 30 27 36 23 7 -3 9 -3 5 1 -8
10 65 86 76 78 5 -3 6 0 2 7 -10 16 98 123 187 186 40 28 73 58 75 67 3 16
-31 55 -84 95 -135 104 -195 137 -283 153 -41 7 -62 17 -79 37 -13 16 -32 37
-42 48 -18 21 -18 21 8 32 79 34 109 35 215 9 56 -14 156 -35 222 -46 66 -12
152 -27 190 -34 79 -14 268 -11 327 5 22 5 110 10 196 10 86 0 186 4 222 9
247 34 440 65 625 100 80 16 306 82 375 110 205 85 360 179 458 278 l67 68 37
-35 c30 -29 36 -41 31 -64z m250 -444 l-5 -108 -38 -35 c-44 -40 -141 -117
-185 -146 -28 -19 -250 -62 -262 -51 -2 3 31 26 74 53 78 47 204 166 342 322
35 40 67 72 71 72 4 0 5 -48 3 -107z m-402 -80 c-15 -28 -64 -70 -88 -76 -26
-6 -28 1 -9 28 7 11 19 38 25 60 7 22 15 47 17 55 4 10 13 6 35 -18 23 -25 28
-36 20 -49z m56 -48 c8 -22 -17 -46 -97 -94 -79 -47 -90 -49 -90 -20 0 14 11
24 38 35 64 26 77 34 97 64 22 33 42 38 52 15z m333 -104 l0 -50 -90 -60 -90
-61 -94 0 c-128 0 -141 27 -21 45 57 8 104 26 125 47 8 8 40 32 70 54 30 23
61 48 69 57 23 28 31 19 31 -32z m207 -63 c-14 -35 -34 -87 -45 -117 -17 -48
-24 -56 -58 -68 -22 -7 -46 -16 -54 -20 -113 -48 -212 -76 -267 -76 -112 -1
-163 3 -163 12 0 4 33 16 73 25 45 11 93 31 128 54 31 20 69 46 85 56 226 151
317 207 323 201 2 -2 -8 -33 -22 -67z m-769 17 c-2 -23 -18 -37 -90 -80 -48
-29 -89 -51 -91 -48 -13 12 10 47 55 84 108 91 133 100 126 44z m132 -115 c0
-5 -9 -34 -20 -63 -19 -52 -23 -55 -68 -67 -26 -6 -103 -27 -171 -46 -69 -19
-126 -32 -128 -30 -2 2 4 20 13 40 14 27 39 48 111 92 93 55 103 58 256 83 4
0 7 -3 7 -9z m-370 -43 c0 -8 -11 -19 -25 -25 -25 -12 -25 -12 -9 13 18 27 34
33 34 12z m535 -17 c3 -5 -2 -10 -12 -10 -10 0 -42 -6 -71 -13 -58 -15 -62
-14 -55 14 5 16 14 19 69 19 34 0 66 -4 69 -10z m360 -140 c-9 -27 -21 -52
-26 -55 -5 -3 -45 -17 -88 -30 l-80 -24 -103 28 c-71 18 -103 32 -103 42 0 11
16 14 75 14 71 0 167 22 215 49 34 19 120 43 123 34 2 -4 -4 -30 -13 -58z
m-999 -26 c-30 -21 -45 -16 -16 6 14 10 27 16 30 13 3 -2 -4 -11 -14 -19z
m543 0 c2 -2 -4 -42 -14 -88 -14 -70 -21 -85 -39 -90 -28 -8 -486 -8 -486 0 0
4 22 32 49 63 53 62 37 54 251 115 40 12 226 11 239 0z m591 -59 c0 -3 -41
-46 -92 -96 l-92 -90 -110 -25 c-61 -14 -155 -35 -209 -47 l-98 -22 -62 23
c-34 13 -82 31 -107 40 l-45 17 110 5 c114 5 109 4 375 96 124 42 313 103 323
104 4 0 7 -2 7 -5z m-450 -36 c48 -18 48 -18 -35 -43 -27 -8 -58 -17 -69 -22
-17 -6 -18 -3 -11 37 4 24 9 47 12 52 5 9 42 0 103 -24z m-698 -26 c-11 -15
-30 -37 -42 -48 l-22 -20 -24 30 c-22 27 -22 31 -6 37 33 13 107 34 111 32 2
-2 -6 -15 -17 -31z m-163 -61 c6 -12 5 -23 -5 -36 -10 -14 -10 -24 -3 -38 6
-11 8 -29 6 -40 -3 -11 1 -54 9 -95 21 -112 22 -109 -42 -130 l-56 -17 -20 24
c-10 14 -29 38 -41 54 -12 16 -34 43 -50 61 l-27 33 102 101 c57 55 106 101
110 101 4 0 12 -8 17 -18z m-392 -88 c4 -11 -10 -31 -42 -61 -46 -45 -47 -45
-66 -27 -21 22 -19 27 34 72 41 35 64 40 74 16z m860 -24 l83 -33 -28 -37
c-15 -20 -42 -55 -60 -77 l-34 -40 -105 23 c-94 20 -108 26 -134 56 -37 43
-36 58 7 88 20 14 48 33 63 43 37 25 107 18 208 -23z m-312 10 c-10 -11 -23
-20 -29 -20 -6 0 -17 9 -24 20 -11 19 -10 20 29 20 41 0 42 0 24 -20z m886
-46 c-11 -14 -41 -44 -67 -67 l-46 -41 -103 -4 c-102 -4 -102 -4 -174 33 -39
20 -71 41 -71 46 0 20 29 20 66 0 49 -27 53 -27 192 8 112 27 198 47 215 50 5
0 -1 -11 -12 -25z m-921 -98 c21 -31 30 -56 30 -84 0 -40 -23 -74 -39 -56 -15
17 -39 184 -26 184 2 0 18 -20 35 -44z m664 -55 c48 1 90 -2 94 -5 3 -4 -11
-23 -32 -43 l-38 -36 -81 17 c-148 30 -222 48 -231 57 -9 8 9 43 39 72 14 15
22 13 89 -24 71 -38 77 -40 160 -38z m-1184 -113 c0 -4 -1 -8 -3 -8 -10 0
-230 -32 -272 -40 -27 -5 -106 -9 -174 -9 l-125 -1 28 29 c23 24 40 31 90 36
33 4 133 24 221 45 l160 38 38 -41 c20 -22 37 -44 37 -49z m870 27 c63 -15
117 -29 119 -31 7 -6 -131 -204 -142 -204 -3 0 -41 22 -84 50 -43 27 -95 59
-116 70 l-38 21 6 62 c4 34 8 67 10 73 4 13 62 3 245 -41z m-1824 -28 c-10 -7
-34 -24 -53 -39 -20 -16 -48 -28 -64 -28 -26 0 -29 3 -29 34 0 33 2 35 38 39
20 2 57 4 82 5 38 1 42 -1 26 -11z m-220 -64 c-7 -56 -9 -58 -35 -41 -33 20
-53 0 -67 -68 -18 -86 -17 -105 6 -111 26 -7 25 -15 -6 -69 -16 -28 -30 -41
-37 -36 -7 4 -36 22 -64 40 -29 19 -53 39 -54 45 -4 42 25 254 35 265 3 2 19
-7 36 -22 37 -31 43 -31 76 -9 102 66 119 67 110 6z m1693 -20 c0 -5 -19 -42
-43 -83 -45 -78 -60 -90 -136 -112 -34 -10 -46 -19 -50 -38 -5 -20 -14 -26
-45 -32 -53 -9 -150 -9 -200 1 l-40 8 70 32 c159 74 274 134 350 181 81 49 95
56 94 43z m153 -105 c46 -29 94 -61 108 -70 l24 -18 -31 -32 c-16 -18 -73 -78
-126 -132 l-95 -100 -65 -4 -66 -4 -11 43 c-6 24 -17 62 -25 84 -18 49 -19 85
-3 85 7 0 31 7 53 15 35 14 47 28 89 100 26 47 52 85 57 85 4 0 45 -24 91 -52z
m-2455 -195 c5 -60 2 -79 -17 -117 -35 -73 -41 -63 -55 79 -5 60 8 196 22 219
11 18 45 -102 50 -181z m79 174 c60 -35 71 -52 84 -127 13 -80 8 -191 -12
-237 -13 -30 -57 -83 -69 -83 -4 0 -24 9 -43 21 l-35 20 30 51 c52 88 57 206
14 327 -15 44 -8 51 31 28z m336 -240 c14 -10 11 -20 -30 -100 -26 -49 -64
-109 -84 -132 -21 -24 -38 -50 -38 -59 0 -21 -4 -20 -50 7 -41 23 -50 41 -26
50 7 3 26 37 41 77 23 60 27 85 26 170 l0 100 72 -51 c40 -28 79 -56 89 -62z
m1688 9 c0 -19 -6 -24 -37 -30 -21 -3 -51 -6 -66 -6 -24 0 -28 4 -25 22 3 24
31 34 96 37 27 1 32 -2 32 -23z m567 -86 c158 -154 372 -354 389 -363 8 -4 24
-18 37 -30 12 -12 44 -40 71 -62 27 -22 68 -56 91 -75 47 -39 179 -146 270
-217 33 -27 93 -70 132 -96 40 -27 78 -55 84 -64 11 -13 8 -14 -22 -9 -19 3
-56 8 -84 11 -27 3 -102 17 -165 32 -226 52 -196 35 -381 216 -91 89 -238 233
-328 320 l-163 157 -3 75 c-2 41 -6 79 -9 84 -4 5 -31 13 -61 16 -31 4 -55 12
-55 19 0 14 72 96 82 93 4 -1 55 -49 115 -107z m-473 -945 c1 -44 -1 -50 -21
-53 -22 -3 -23 0 -23 53 0 52 2 56 22 53 19 -3 22 -10 22 -53z m-968 -32 c-7
-60 -23 -87 -43 -75 -8 5 -9 20 -2 57 14 71 16 75 35 75 14 0 16 -8 10 -57z
m970 -127 c3 -7 4 -42 2 -77 l-3 -64 -22 23 c-18 17 -23 34 -23 70 0 27 3 52
7 55 11 12 33 8 39 -7z m-1003 -103 c-3 -38 -7 -70 -10 -72 -2 -3 -10 2 -19
10 -22 22 -9 129 16 129 16 0 17 -8 13 -67z m1007 -248 l0 -115 -31 0 c-22 0
-46 12 -81 41 -53 45 -51 59 9 59 48 0 63 22 63 91 0 57 1 59 20 49 18 -10 20
-21 20 -125z m-1032 60 c1 -17 -4 -64 -11 -105 -12 -75 -13 -75 -46 -78 -27
-3 -40 3 -67 29 -19 18 -34 37 -34 41 0 4 20 8 44 8 24 0 48 6 54 13 5 6 13
38 17 70 5 47 10 58 23 55 11 -2 18 -14 20 -33z m813 -137 l44 -43 -104 -3
c-57 -1 -105 -1 -108 1 -2 3 -6 20 -10 40 -5 33 -3 36 23 40 90 13 109 9 155
-35z m-1051 -4 c22 -20 40 -40 40 -45 0 -5 -40 -9 -90 -9 -49 0 -90 4 -90 9 0
5 -3 22 -6 39 l-6 31 53 4 c30 2 55 4 56 5 2 1 21 -14 43 -34z"/>
<path d="M5715 4415 c-115 -58 -360 -227 -448 -309 -14 -13 -47 -39 -74 -57
-26 -19 -58 -44 -71 -55 -14 -12 -47 -32 -76 -45 -28 -13 -56 -29 -63 -35 -30
-29 -190 -76 -273 -82 -83 -5 -110 -16 -110 -45 0 -70 197 -60 368 19 41 19
75 34 77 34 5 0 110 65 125 78 8 7 35 27 59 45 24 17 67 50 96 72 196 151 301
226 368 264 19 10 43 24 53 30 11 6 40 20 67 31 32 13 47 25 47 38 0 48 -67
56 -145 17z"/>
<path d="M4610 3936 c-25 -13 -63 -34 -85 -45 -56 -29 -70 -54 -49 -86 20 -30
46 -26 117 16 26 16 47 25 47 21 0 -4 4 -2 8 3 4 6 16 15 27 21 35 19 28 94
-9 94 -7 0 -32 -11 -56 -24z"/>
<path d="M2294 7328 c-47 -74 -112 -232 -128 -311 -30 -142 -13 -300 41 -400
47 -84 59 -79 127 59 52 106 81 197 72 227 -43 147 -48 184 -45 322 4 138 4
140 -18 143 -17 2 -29 -7 -49 -40z m27 -373 l21 -90 -27 -71 c-32 -80 -49
-109 -63 -100 -16 10 -35 154 -29 224 6 68 26 153 48 207 l12 30 9 -55 c5 -30
18 -95 29 -145z"/>
<path d="M10739 7243 c-8 -2 -27 -27 -42 -56 -15 -29 -45 -81 -67 -117 -22
-36 -45 -76 -51 -90 -5 -14 -23 -53 -40 -86 -34 -70 -89 -229 -89 -256 0 -10
7 -29 16 -43 8 -13 31 -70 50 -126 52 -156 45 -224 -32 -291 -33 -29 -34 -31
-17 -50 13 -14 24 -17 47 -12 56 12 161 47 176 59 8 7 29 19 45 28 51 26 143
126 195 213 65 106 68 126 34 189 -44 82 -102 202 -130 268 -14 34 -31 76 -39
92 -7 17 -21 60 -31 97 -17 64 -17 69 -1 103 28 59 19 87 -24 78z m-29 -243
c0 -8 6 -26 13 -40 8 -14 26 -59 42 -99 15 -40 56 -129 91 -197 70 -138 70
-135 17 -216 -56 -86 -129 -160 -185 -189 -20 -10 -39 -23 -43 -29 -3 -5 -12
-10 -19 -10 -10 0 -12 16 -8 68 5 79 -21 188 -70 292 l-31 64 28 81 c34 95 98
237 128 282 21 31 36 29 37 -7z"/>
<path d="M3967 6864 c-4 -4 -7 -16 -7 -26 0 -18 48 -44 165 -89 28 -10 79 -39
115 -63 117 -80 280 -156 335 -156 16 0 27 10 38 33 24 50 40 114 34 130 -6
15 -62 34 -167 57 -93 21 -120 27 -285 70 -181 48 -217 55 -228 44z"/>
<path d="M5950 6829 c-137 -29 -400 -90 -470 -108 l-65 -16 -3 -86 c-2 -73 0
-88 14 -93 16 -6 142 24 199 49 17 7 55 22 86 34 31 12 99 50 151 85 52 34
121 70 152 80 61 19 76 36 56 61 -15 18 -12 18 -120 -6z"/>
<path d="M3878 6374 c-5 -4 -8 -18 -8 -31 0 -18 7 -25 30 -30 39 -7 45 -18 21
-40 -55 -53 -109 -224 -93 -298 8 -38 65 -125 82 -125 4 0 19 -11 34 -23 41
-35 143 -68 213 -68 119 -1 244 91 277 202 21 69 20 161 -3 226 -20 58 -18 65
13 57 12 -3 30 2 41 10 16 12 18 18 9 33 -9 15 -51 23 -255 49 -134 17 -269
34 -299 38 -30 4 -58 4 -62 0z"/>
<path d="M6100 6294 c-14 -1 -126 -8 -250 -15 -124 -6 -233 -16 -243 -21 -11
-6 -17 -18 -15 -31 3 -19 10 -22 51 -25 26 -2 47 -5 47 -6 0 -2 -12 -30 -27
-62 -38 -82 -39 -197 -3 -267 53 -105 146 -157 280 -157 87 0 155 21 213 66
65 51 81 96 75 221 -4 103 -23 157 -67 197 -29 27 -26 34 15 38 47 4 68 32 40
54 -18 13 -52 15 -116 8z"/>
<path d="M2237 5803 c-15 -15 -5 -43 34 -92 l41 -51 -27 -163 c-15 -89 -29
-211 -32 -272 l-6 -110 74 -70 c41 -38 131 -119 199 -179 69 -60 129 -113 135
-118 5 -5 9 -34 7 -66 -3 -67 7 -87 36 -78 24 8 22 -5 53 271 36 316 36 313 0
377 -17 29 -38 63 -48 73 -10 11 -34 42 -54 67 -20 26 -87 102 -150 169 l-114
121 3 54 c3 44 1 55 -14 61 -11 4 -23 -1 -36 -17 l-18 -22 -21 26 c-19 25 -48
34 -62 19z m219 -310 c38 -42 78 -86 89 -98 11 -11 34 -38 50 -60 16 -22 37
-49 47 -59 9 -10 27 -40 39 -65 22 -46 22 -46 5 -186 -9 -77 -16 -151 -16
-163 0 -23 -2 -22 -47 16 -27 22 -68 58 -92 81 -24 23 -46 41 -47 41 -2 0 -14
10 -26 23 -13 12 -47 43 -76 69 l-52 47 0 69 c0 98 36 362 50 362 3 0 38 -35
76 -77z"/>
<path d="M7078 5780 c-40 -12 -131 -66 -154 -91 -19 -21 -19 -21 5 -40 23 -19
23 -18 66 11 66 45 92 54 190 60 78 4 90 7 93 24 7 32 -25 46 -102 45 -39 0
-83 -4 -98 -9z"/>
<path d="M4733 5772 c-18 -11 -26 -58 -14 -81 21 -39 110 -68 126 -41 12 19
-5 46 -35 57 -19 7 -30 18 -30 30 0 18 -17 43 -29 43 -4 0 -11 -4 -18 -8z"/>
<path d="M3874 5522 c-14 -9 -44 -119 -44 -159 0 -23 6 -33 20 -38 30 -9 47
10 55 58 4 23 11 47 15 52 15 21 21 67 9 81 -12 15 -38 18 -55 6z"/>
<path d="M4050 5485 c-5 -14 -17 -55 -25 -91 -16 -71 -10 -94 26 -94 23 0 32
18 54 108 14 58 15 75 5 87 -19 23 -49 18 -60 -10z"/>
<path d="M5877 5433 c-20 -19 10 -188 35 -204 20 -13 48 10 48 39 -1 48 -28
154 -42 163 -16 10 -32 11 -41 2z"/>
<path d="M6057 5426 c-7 -17 19 -166 31 -178 5 -5 20 -8 33 -6 21 3 24 8 23
43 -1 22 -6 66 -13 98 -12 53 -14 57 -41 57 -15 0 -30 -6 -33 -14z"/>
<path d="M4865 5263 c-44 -57 -53 -89 -32 -110 14 -14 18 -13 39 9 12 13 32
37 43 52 l20 29 92 -48 c91 -47 117 -51 129 -20 8 21 -11 35 -118 90 -112 58
-128 58 -173 -2z"/>
<path d="M2850 5176 c-26 -32 57 -299 148 -478 43 -85 135 -224 166 -253 7 -5
20 -22 32 -36 35 -46 167 -154 240 -196 130 -77 189 -90 182 -41 -2 16 -20 30
-63 51 -301 144 -527 450 -629 855 -28 106 -47 132 -76 98z"/>
<path d="M2864 4347 c-12 -31 99 -243 190 -362 107 -142 288 -291 456 -378 43
-22 74 -19 78 9 2 16 -9 27 -50 49 -268 144 -478 369 -594 640 -18 39 -28 51
-48 53 -16 2 -28 -2 -32 -11z"/>
<path d="M10405 4243 c-112 -175 -317 -404 -485 -538 -41 -33 -77 -62 -80 -65
-3 -3 -21 -17 -40 -30 -19 -13 -39 -29 -45 -35 -13 -15 -196 -135 -265 -175
-103 -59 -381 -188 -440 -205 -14 -4 -38 -13 -55 -21 -73 -32 -403 -134 -535
-164 -72 -17 -90 -27 -90 -51 0 -29 21 -33 92 -16 122 29 461 131 528 159 14
6 56 21 94 34 38 13 74 28 80 33 6 4 36 17 66 29 162 59 503 264 661 397 196
164 263 228 375 360 129 151 136 161 184 237 44 71 48 101 13 106 -17 3 -30
-9 -58 -55z"/>
<path d="M1959 4073 c-36 -52 -64 -155 -49 -183 10 -19 172 -75 194 -67 9 4
16 17 16 30 0 26 -25 120 -41 152 -5 11 -15 40 -22 65 -11 37 -17 46 -39 48
-22 3 -32 -5 -59 -45z m56 -99 c25 -60 18 -78 -20 -51 -14 11 -16 21 -11 50 4
21 9 37 11 37 3 0 12 -16 20 -36z"/>
<path d="M8270 4022 c-14 -9 -44 -30 -65 -46 -22 -17 -65 -48 -95 -70 -100
-75 -157 -123 -260 -219 -91 -86 -140 -152 -140 -191 0 -39 -28 -196 -40 -221
-5 -11 -15 -42 -23 -70 -8 -27 -22 -68 -31 -89 -21 -51 -9 -66 54 -66 60 0
202 41 280 80 188 95 260 172 298 320 49 186 110 546 98 577 -7 18 -45 15 -76
-5z m-16 -154 c-22 -158 -91 -468 -104 -468 -4 0 -11 -11 -14 -25 -8 -30 -82
-104 -113 -112 -13 -3 -23 -9 -23 -13 0 -5 -26 -21 -57 -35 -32 -15 -69 -33
-83 -40 -27 -14 -103 -37 -133 -40 -15 -1 -17 3 -11 29 3 17 10 36 14 41 9 12
37 140 45 210 4 28 11 64 16 82 11 33 133 163 216 229 27 21 53 43 58 49 22
24 174 133 188 134 4 1 5 -18 1 -41z"/>
<path d="M2194 3825 c-4 -8 -1 -32 4 -53 75 -258 238 -565 397 -747 136 -156
237 -244 450 -397 61 -43 281 -159 350 -184 28 -9 55 -21 60 -25 17 -12 208
-79 227 -79 10 0 22 9 28 19 8 16 6 23 -12 35 -12 9 -30 16 -38 16 -9 0 -20 4
-25 9 -6 5 -35 16 -65 26 -30 10 -77 28 -105 40 -27 12 -84 38 -125 56 -79 35
-260 140 -322 186 -20 16 -58 44 -85 63 -26 19 -55 42 -63 51 -8 10 -39 38
-68 63 -81 71 -282 306 -282 331 0 4 -11 21 -24 38 -46 61 -153 283 -204 422
-41 114 -54 141 -71 143 -12 2 -24 -3 -27 -13z"/>
<path d="M10485 3806 c-48 -15 -141 -73 -171 -107 -12 -13 -29 -38 -39 -56
-15 -26 -16 -34 -6 -47 20 -24 36 -20 65 15 26 30 28 31 59 18 19 -8 69 -14
122 -14 81 0 95 3 135 28 55 33 77 52 113 95 31 39 33 45 11 66 -12 13 -39 16
-132 15 -64 0 -135 -6 -157 -13z m171 -75 c-35 -38 -141 -61 -204 -45 -63 17
45 62 152 63 68 1 69 1 52 -18z"/>
<path d="M3248 3270 c-35 -52 -88 -190 -101 -262 -10 -52 -9 -61 10 -85 11
-16 28 -44 38 -63 32 -62 97 -131 119 -128 19 3 22 12 27 94 5 59 14 108 28
138 l21 48 -36 136 c-31 121 -50 162 -74 162 -4 0 -18 -18 -32 -40z m61 -243
c1 -15 -6 -44 -14 -64 -8 -19 -15 -46 -15 -59 0 -35 -14 -29 -45 17 -31 47
-30 82 4 160 10 24 22 53 26 64 6 16 11 10 26 -35 10 -30 18 -68 18 -83z"/>
<path d="M9722 3137 c-17 -12 -78 -62 -136 -111 -58 -49 -116 -96 -129 -105
-161 -108 -199 -132 -214 -138 -10 -3 -25 -12 -33 -19 -27 -23 -281 -146 -384
-186 -152 -59 -305 -107 -429 -133 -123 -26 -177 -43 -177 -55 0 -23 15 -40
35 -40 41 0 276 57 385 93 450 150 755 323 1078 613 64 57 72 73 48 93 -10 8
-20 6 -44 -12z"/>
</g>
</svg>
