<?xml version="1.0" standalone="no"?>
<!DOCTYPE svg PUBLIC "-//W3C//DTD SVG 20010904//EN"
 "http://www.w3.org/TR/2001/REC-SVG-20010904/DTD/svg10.dtd">
<svg version="1.0" xmlns="http://www.w3.org/2000/svg"
 width="720.000000pt" height="608.000000pt" viewBox="0 0 720.000000 608.000000"
 preserveAspectRatio="xMidYMid meet">

<g transform="translate(0.000000,608.000000) scale(0.100000,-0.100000)"
fill="#000000" stroke="none">
<path d="M3597 5136 c-12 -13 -35 -57 -52 -97 -43 -104 -59 -112 -245 -120
-156 -6 -203 -18 -300 -71 -82 -45 -133 -91 -161 -142 -16 -30 -34 -49 -54
-57 -181 -67 -219 -123 -214 -316 2 -68 -2 -106 -11 -123 -8 -14 -24 -63 -36
-110 l-22 -85 -71 -7 c-38 -4 -86 -14 -105 -22 -57 -24 -200 -135 -331 -258
l-65 -60 -73 55 c-39 30 -124 94 -187 143 -287 221 -427 325 -640 478 -61 44
-91 57 -118 54 -22 -2 -28 -9 -30 -35 -2 -17 4 -45 12 -62 21 -40 20 -49 -6
-53 -42 -6 -45 -46 -9 -155 40 -121 158 -442 171 -465 6 -10 10 -24 10 -32 0
-30 122 -294 167 -360 26 -39 100 -123 163 -186 l116 -115 -17 -81 c-31 -145
-49 -323 -49 -476 0 -226 25 -347 92 -445 35 -52 132 -122 233 -169 89 -41
276 -104 309 -104 31 0 53 -27 71 -88 19 -63 56 -96 99 -88 23 5 36 1 58 -21
35 -33 35 -38 -1 -53 -16 -6 -37 -21 -47 -31 -16 -18 -16 -21 -2 -35 8 -9 35
-18 58 -21 43 -6 43 -6 22 -24 -12 -9 -22 -24 -22 -33 0 -23 44 -48 94 -53
l43 -5 -16 -65 c-15 -62 -14 -66 3 -79 25 -18 46 -6 107 60 26 28 50 48 54 45
3 -4 -13 -71 -35 -150 -23 -79 -57 -198 -76 -264 -19 -65 -31 -122 -26 -126 8
-9 228 -89 243 -89 4 0 6 6 3 14 -3 8 2 45 10 83 14 61 42 183 76 329 l11 52
72 -18 c40 -10 104 -25 142 -33 39 -8 114 -25 168 -37 111 -26 190 -24 234 5
23 15 128 58 167 68 4 1 10 -14 12 -33 2 -19 6 -55 9 -80 2 -25 7 -128 10
-230 3 -102 8 -200 11 -219 l5 -34 77 6 c168 14 254 27 268 38 8 7 11 15 6 18
-4 3 -13 58 -20 121 -12 119 -45 406 -58 498 l-7 52 95 0 c69 0 111 6 153 20
31 11 61 18 65 15 4 -3 11 -22 14 -42 4 -21 12 -52 18 -70 10 -27 9 -35 -5
-51 -28 -30 -22 -92 13 -140 17 -23 35 -42 40 -42 6 0 20 -21 31 -46 24 -58
73 -121 100 -129 40 -13 77 42 99 149 l12 57 22 -33 c24 -36 66 -48 93 -26 18
15 77 133 87 174 4 16 14 48 24 71 l17 41 16 -71 c10 -40 23 -107 30 -149 7
-43 17 -78 23 -78 17 0 86 49 86 61 0 5 -11 62 -25 127 -30 135 -64 259 -140
497 -29 94 -77 247 -105 340 -29 94 -69 227 -91 296 -21 70 -39 129 -39 133 0
3 11 6 25 6 23 0 45 24 45 50 0 26 -203 198 -325 276 -33 21 -120 68 -192 105
-73 38 -129 71 -124 74 26 15 101 16 160 0 34 -9 124 -26 200 -39 l136 -22 49
-100 c27 -54 71 -162 98 -239 73 -208 125 -339 175 -440 45 -90 185 -307 285
-442 96 -132 223 -305 230 -316 8 -13 68 39 68 59 0 6 -28 49 -63 95 -85 113
-282 394 -352 502 -89 137 -148 271 -250 567 -24 69 -64 170 -89 224 -26 55
-43 103 -39 106 5 4 29 13 54 20 56 14 119 63 119 92 0 11 -16 36 -35 55 -20
20 -34 37 -32 39 2 3 30 11 62 19 82 22 120 42 134 71 15 33 15 32 -20 65
l-31 29 27 40 c15 22 29 40 32 40 2 0 17 -16 34 -35 23 -26 39 -35 63 -35 56
0 76 31 76 118 0 33 5 84 10 113 6 30 11 70 12 89 1 24 12 49 35 77 37 45 54
113 35 136 -9 10 2 32 48 95 159 216 207 381 165 561 -19 79 -43 120 -74 128
-21 5 -23 9 -17 47 12 77 19 194 12 219 -7 29 -55 52 -90 43 l-24 -6 2 143 c1
134 0 144 -22 175 -34 46 -56 56 -99 41 -74 -24 -218 -204 -262 -328 -10 -28
-20 -54 -24 -57 -3 -3 -25 13 -49 35 -57 55 -108 79 -220 100 -93 17 -93 18
-96 49 -4 40 -35 65 -115 91 -138 46 -304 50 -428 11 -56 -17 -61 -17 -66 -2
-23 63 -55 125 -77 147 -33 33 -80 33 -109 1z m52 -246 c-63 -50 -134 -125
-167 -173 -59 -86 -100 -227 -102 -344 0 -42 32 -77 63 -68 34 11 47 35 47 89
0 130 60 256 171 360 103 97 193 143 301 155 80 9 215 -1 263 -19 22 -8 24
-13 15 -30 -14 -26 -5 -57 23 -75 12 -7 78 -23 146 -34 153 -26 191 -43 265
-119 l59 -61 -9 -51 -9 -51 -135 -4 c-206 -6 -274 -26 -422 -124 -69 -45 -78
-54 -78 -81 0 -23 6 -33 25 -42 22 -10 34 -5 107 40 132 81 175 94 312 100
114 4 119 4 112 -14 -5 -11 -18 -57 -30 -103 l-22 -84 -109 -2 c-158 -2 -209
-25 -190 -84 9 -29 29 -32 125 -20 49 6 100 9 114 5 25 -6 25 -8 20 -64 -5
-47 -3 -61 10 -75 10 -9 23 -17 30 -17 34 0 48 31 90 201 25 97 51 190 59 205
19 37 53 68 65 60 17 -10 35 -109 35 -186 -1 -76 -32 -183 -100 -344 -20 -48
-23 -64 -14 -83 17 -36 60 -31 102 13 43 45 177 154 190 154 5 0 9 -29 9 -64
0 -84 1 -83 -198 -203 -33 -20 -28 -74 8 -86 20 -7 39 -1 99 33 l74 42 25 -25
25 -25 -49 -49 c-40 -39 -71 -57 -164 -95 -63 -25 -127 -49 -142 -52 -21 -5
-30 -16 -44 -58 -24 -76 -41 -107 -90 -165 -129 -151 -409 -281 -714 -329
-140 -22 -401 -15 -545 15 -193 41 -342 136 -437 278 -93 139 -124 267 -115
468 5 120 33 245 86 399 12 33 21 66 21 75 0 9 -34 45 -75 79 -94 78 -109 106
-107 198 1 93 21 140 66 159 48 20 56 19 56 -9 0 -39 50 -179 73 -205 52 -56
119 -101 152 -101 35 0 49 11 58 48 4 19 -6 32 -58 74 -73 58 -93 93 -107 187
-20 131 24 196 183 267 l26 12 -35 -69 c-31 -60 -35 -77 -36 -146 -1 -66 4
-88 29 -143 61 -135 99 -170 154 -139 33 19 30 46 -14 119 -45 74 -59 123 -52
181 7 60 29 103 75 152 36 37 107 67 157 67 91 0 196 73 231 160 l18 44 19
-44 20 -44 -44 -36z m1415 -45 c-7 -97 -122 -485 -144 -485 -4 0 -15 20 -24
45 -10 25 -28 53 -42 64 -31 24 -31 50 1 175 29 116 74 202 147 282 l52 56 8
-28 c5 -16 6 -65 2 -109z m112 -267 c-15 -114 -49 -258 -88 -373 -51 -152 -61
-171 -95 -180 -15 -3 -43 -18 -60 -31 -18 -14 -33 -21 -33 -15 0 19 30 123 38
135 8 10 110 282 162 432 20 56 42 81 74 83 5 1 6 -23 2 -51z m88 -363 c14
-100 -18 -207 -103 -342 -14 -24 -29 -43 -32 -43 -4 0 -9 34 -11 76 -5 67 -2
84 24 147 16 40 39 101 50 137 40 124 58 131 72 25z m-4175 -22 c25 -21 60
-50 76 -65 17 -15 39 -34 50 -43 19 -14 19 -15 1 -8 -13 4 -17 3 -12 -5 4 -7
2 -12 -3 -12 -6 0 -11 -9 -11 -20 0 -25 -15 -26 -24 -3 -4 10 -1 22 8 28 9 7
12 16 6 25 -7 12 -10 11 -16 -4 -5 -12 -13 -16 -29 -12 -14 4 -28 0 -35 -9 -9
-11 -9 -15 -1 -15 7 0 9 -5 5 -11 -5 -8 -9 -8 -14 1 -12 19 -71 -25 -63 -47 5
-14 8 -13 14 5 9 24 25 28 49 12 11 -8 8 -9 -13 -4 -15 3 -27 2 -26 -2 1 -5 0
-11 -1 -14 -1 -3 -3 -17 -4 -31 l-2 -27 38 20 c42 22 51 39 16 31 -13 -3 -20
-2 -16 2 5 5 24 8 43 7 19 -1 35 3 35 9 0 6 10 9 23 7 16 -2 22 2 21 15 -1 9
2 17 6 17 5 0 16 7 24 16 15 14 21 13 67 -23 36 -27 49 -43 45 -56 -6 -25 13
-67 28 -61 15 6 62 -33 52 -43 -4 -4 -11 -1 -16 7 -5 8 -12 11 -16 7 -4 -4 -1
-14 7 -23 14 -13 17 -12 33 5 17 19 17 20 -23 45 -23 15 -41 31 -41 37 0 5 -4
7 -10 4 -5 -3 -10 -1 -10 4 0 18 14 13 60 -21 24 -18 56 -39 71 -48 36 -19
260 -203 255 -208 -3 -2 -13 1 -24 7 -15 8 -23 7 -34 -7 -18 -20 -32 -72 -20
-72 4 0 6 -16 4 -35 -4 -29 -7 -33 -22 -25 -9 5 -20 7 -23 4 -3 -3 -8 0 -13 7
-4 7 -3 10 3 6 17 -10 47 18 40 37 -4 10 -12 14 -19 10 -9 -6 -9 -9 0 -12 20
-6 14 -22 -9 -22 -12 0 -23 -8 -26 -20 -4 -13 -14 -20 -30 -20 -18 0 -24 -4
-19 -15 4 -11 -3 -19 -21 -26 -20 -7 -23 -13 -15 -21 21 -21 13 -28 -27 -28
-38 0 -71 -19 -71 -42 0 -6 -13 -8 -31 -6 -22 4 -33 0 -40 -14 -5 -10 -21 -18
-35 -18 -24 0 -24 -1 -9 -30 9 -16 12 -30 7 -30 -9 0 -97 171 -148 289 -26 58
-27 65 -13 90 11 19 23 26 49 28 22 1 29 -1 20 -7 -23 -14 -4 -23 20 -10 18
10 20 14 9 21 -12 7 -11 9 1 10 10 0 8 3 -5 9 -16 7 -17 9 -3 9 9 1 24 -2 33
-5 13 -5 14 -8 3 -15 -7 -5 -8 -9 -3 -9 6 0 27 14 48 31 28 23 37 38 37 60 0
32 16 69 34 81 6 4 7 10 3 14 -3 4 -13 1 -22 -6 -13 -10 -15 -9 -15 8 0 35
-24 30 -69 -14 -24 -24 -48 -44 -53 -44 -4 0 -13 -11 -18 -25 -5 -14 -15 -25
-22 -25 -9 0 -9 3 2 11 12 8 9 9 -10 4 -14 -4 -35 -9 -47 -12 -27 -6 -29 -18
-5 -33 14 -9 14 -10 -6 -5 -22 6 -22 5 -10 -14 7 -12 14 -17 16 -11 2 6 7 8
12 5 9 -6 1 -45 -9 -45 -10 0 -35 63 -33 83 1 10 -2 15 -8 12 -12 -7 -38 53
-52 120 -5 28 -19 66 -29 85 -22 42 -49 109 -49 121 0 5 11 9 25 9 32 0 58 39
49 74 -8 35 0 33 55 -11z m1622 -263 c-39 -132 -42 -134 -79 -41 -26 64 -28
139 -6 204 l16 47 52 -46 53 -45 -36 -119z m-1576 120 c3 -5 1 -10 -4 -10 -6
0 -11 5 -11 10 0 6 2 10 4 10 3 0 8 -4 11 -10z m7 -42 c-11 -11 -32 -3 -32 12
0 4 9 6 21 3 13 -4 17 -9 11 -15z m188 -98 c0 -5 -4 -10 -10 -10 -5 0 -10 5
-10 10 0 6 5 10 10 10 6 0 10 -4 10 -10z m-30 -40 c-33 -26 -49 -26 -19 0 13
10 29 19 34 19 6 1 -1 -8 -15 -19z m34 -14 c-3 -9 -10 -16 -15 -16 -5 0 -4 9
3 20 14 22 21 20 12 -4z m-74 -26 c0 -6 -7 -13 -15 -16 -8 -4 -15 -16 -15 -29
0 -13 -6 -25 -14 -28 -14 -6 -13 1 10 66 7 18 34 24 34 7z m75 -30 c3 -6 -1
-13 -10 -16 -19 -8 -30 0 -20 15 8 14 22 14 30 1z m-155 -20 c0 -5 -7 -7 -15
-4 -8 4 -15 8 -15 10 0 2 7 4 15 4 8 0 15 -4 15 -10z m120 -15 c10 -13 9 -15
-8 -15 -15 0 -20 5 -16 15 4 8 7 15 9 15 1 0 8 -7 15 -15z m444 -89 c25 10 19
-10 -12 -39 -32 -31 -54 -37 -27 -7 16 18 16 20 1 35 -21 22 -20 28 3 15 11
-5 27 -7 35 -4z m-57 -38 c-3 -8 -6 -5 -6 6 -1 11 2 17 5 13 3 -3 4 -12 1 -19z
m122 -5 c20 -14 38 -28 39 -29 2 -1 -22 -35 -53 -74 -32 -39 -60 -68 -63 -66
-2 3 5 17 16 31 12 15 20 32 18 38 -1 7 -1 8 2 4 2 -4 10 -3 18 4 17 14 19 49
3 49 -8 0 -8 4 1 15 12 15 6 35 -12 35 -7 0 -6 -5 1 -14 10 -12 8 -15 -11 -18
-20 -3 -23 -9 -24 -51 -1 -47 -16 -78 -31 -62 -5 4 -2 10 5 12 7 3 12 22 12
48 0 37 25 105 39 105 2 0 20 -12 40 -27z m-122 -65 c-3 -7 -5 -2 -5 12 0 14
2 19 5 13 2 -7 2 -19 0 -25z m7 -65 c-9 -18 -21 -33 -26 -33 -5 0 0 13 11 29
12 16 22 46 23 68 l1 38 4 -35 c3 -22 -2 -47 -13 -67z m81 78 c16 -19 16 -20
-4 -18 -13 1 -21 8 -21 19 0 23 3 23 25 -1z m873 -63 c-3 -20 -11 -24 -63 -29
-134 -14 -172 -35 -251 -140 -129 -169 -476 -717 -539 -850 -47 -100 -58 -167
-53 -346 3 -145 4 -152 28 -178 14 -15 48 -38 75 -52 52 -27 65 -39 65 -62 0
-36 -149 43 -185 98 -15 23 -26 59 -30 101 -4 36 -22 103 -40 150 -50 128 -63
180 -85 334 -20 135 -20 219 0 256 11 19 15 1 35 -165 24 -196 57 -346 84
-377 3 -4 7 22 9 57 3 69 28 159 59 215 11 19 31 55 45 80 14 25 43 74 66 110
22 36 60 97 83 135 78 130 326 500 373 557 26 31 58 64 72 73 33 22 158 54
212 54 39 1 43 -1 40 -21z m-1048 -24 c0 -14 -4 -23 -10 -19 -5 3 -10 15 -10
26 0 10 5 19 10 19 6 0 10 -12 10 -26z m110 -24 c0 -5 -4 -10 -10 -10 -5 0
-10 5 -10 10 0 6 5 10 10 10 6 0 10 -4 10 -10z m-130 -15 c0 -10 -10 -15 -27
-15 -27 1 -27 1 -9 15 25 19 36 19 36 0z m116 -47 c-3 -16 -16 -43 -27 -60
-12 -17 -35 -53 -50 -82 -33 -59 -39 -55 -9 6 11 23 20 50 20 60 0 10 5 17 11
16 6 -2 13 6 15 16 1 10 8 22 15 26 6 5 9 15 6 25 -5 11 -3 14 5 9 8 -5 9 -2
5 10 -4 11 -3 15 4 10 6 -4 8 -19 5 -36z m34 32 c0 -5 -4 -10 -10 -10 -5 0
-10 5 -10 10 0 6 5 10 10 10 6 0 10 -4 10 -10z m-206 -62 c3 -35 8 -76 10 -92
3 -15 0 -38 -5 -50 l-10 -21 4 21 c3 15 0 21 -12 20 -11 -1 -15 6 -14 22 2 14
-3 22 -13 22 -14 0 -14 2 0 16 11 10 16 34 16 70 0 74 16 68 24 -8z m3453 -20
c-3 -18 -9 -52 -12 -75 -4 -24 -10 -43 -13 -43 -4 0 -18 12 -31 26 -19 19 -30
24 -50 19 -36 -9 -48 -21 -93 -92 -38 -61 -57 -73 -86 -55 -9 7 -5 23 19 73
17 35 34 70 38 77 5 12 201 100 225 101 4 1 6 -14 3 -31z m-3358 -21 c1 -5 -3
-5 -9 -2 -5 3 -10 16 -9 28 0 21 1 21 9 2 5 -11 9 -24 9 -28z m-37 1 c2 -13 9
-22 16 -20 14 2 17 -24 3 -32 -10 -7 -52 59 -44 68 12 12 22 5 25 -16z m1092
-50 c12 -43 14 -63 6 -75 -8 -15 -9 -13 -4 10 4 18 2 27 -6 27 -7 0 -10 6 -7
13 3 7 -1 26 -8 42 -8 17 -14 23 -14 14 -1 -13 -11 -17 -43 -17 -23 -1 -48 4
-56 10 -9 8 -16 8 -24 0 -9 -9 -8 -12 6 -12 10 0 14 -5 10 -11 -4 -7 -10 -7
-16 -1 -15 15 -48 -7 -40 -27 5 -14 4 -14 -10 -1 -14 13 -14 17 -1 32 19 21
68 44 112 52 27 5 32 3 27 -9 -3 -9 0 -15 10 -15 9 0 12 5 8 11 -7 12 17 32
27 21 3 -4 13 -33 23 -64z m-1339 32 c-8 -25 10 -27 24 -2 13 22 14 7 1 -18
-12 -23 -3 -50 17 -50 13 0 13 -3 3 -15 -10 -12 -14 -12 -26 0 -8 7 -14 18
-14 24 0 6 -5 11 -11 11 -5 0 -7 5 -4 10 3 6 2 10 -3 10 -5 0 -7 11 -4 25 2
14 9 25 14 25 5 0 6 -9 3 -20z m72 -57 c-2 -1 -14 1 -27 4 -22 6 -22 7 -4 13
15 6 40 -8 31 -17z m1173 23 c0 -11 -19 -15 -25 -6 -3 5 1 10 9 10 9 0 16 -2
16 -4z m45 -6 c-3 -5 -10 -10 -16 -10 -5 0 -9 5 -9 10 0 6 7 10 16 10 8 0 12
-4 9 -10z m-1189 -27 c-7 -23 8 -48 23 -39 6 4 11 2 11 -5 0 -6 -8 -9 -19 -6
-36 9 -35 -25 1 -55 37 -30 51 -29 23 2 -10 11 -13 20 -7 20 6 0 14 -4 17 -10
9 -15 25 -12 25 4 0 8 5 18 11 22 8 4 9 -1 4 -17 -3 -13 -3 -19 2 -13 4 6 16
13 26 17 18 7 24 37 6 37 -5 0 -7 -4 -4 -10 3 -5 2 -10 -4 -10 -5 0 -13 5 -16
10 -3 6 -1 10 4 10 6 0 11 7 11 15 0 23 20 18 29 -7 10 -27 -6 -68 -26 -68 -9
0 -12 -7 -9 -17 3 -10 1 -25 -4 -33 -7 -11 -10 -11 -10 -2 0 7 -4 10 -10 7 -5
-3 -10 -1 -10 4 0 6 5 11 11 11 5 0 7 5 3 11 -4 8 -9 7 -15 -2 -12 -20 -11
-25 7 -44 9 -9 14 -18 12 -21 -3 -2 -38 27 -78 65 -76 72 -77 76 -36 118 26
27 29 28 22 6z m154 7 c0 -5 -4 -10 -10 -10 -5 0 -10 5 -10 10 0 6 5 10 10 10
6 0 10 -4 10 -10z m1058 -16 c0 -15 -4 -22 -10 -16 -5 5 -6 16 -2 25 9 23 12
21 12 -9z m-204 -6 c-4 -13 -12 -27 -18 -31 -6 -4 0 -7 14 -6 62 5 79 -14 43
-49 -15 -16 -16 -15 -10 10 7 27 6 27 -33 24 -23 -2 -43 -6 -47 -9 -3 -4 -10
-30 -14 -59 -6 -37 -5 -54 3 -60 7 -4 9 -10 6 -14 -4 -3 -14 0 -22 9 -8 8 -13
16 -11 18 2 2 5 23 8 46 2 27 16 58 41 92 41 56 51 63 40 29z m79 3 c6 -23 0
-31 -21 -31 -12 0 -12 3 -2 15 6 8 9 19 5 25 -3 5 -2 10 3 10 5 0 12 -9 15
-19z m67 -1 c0 -5 -4 -10 -10 -10 -5 0 -10 5 -10 10 0 6 5 10 10 10 6 0 10 -4
10 -10z m-115 -10 c3 -5 -1 -10 -9 -10 -9 0 -16 5 -16 10 0 6 4 10 9 10 6 0
13 -4 16 -10z m95 -20 c0 -5 -4 -10 -9 -10 -6 0 -13 5 -16 10 -3 6 1 10 9 10
9 0 16 -4 16 -10z m50 -25 c0 -14 -4 -25 -10 -25 -5 0 -10 11 -10 25 0 14 5
25 10 25 6 0 10 -11 10 -25z m241 -217 c37 -38 63 -71 58 -74 -10 -6 -48 34
-49 50 0 5 -7 3 -16 -5 -13 -10 -17 -10 -26 2 -7 10 -11 11 -15 2 -3 -9 -10
-9 -28 3 -13 9 -29 13 -35 9 -5 -3 -10 -2 -10 4 0 19 20 22 45 5 15 -10 25
-12 25 -5 0 6 -4 11 -10 11 -5 0 -10 14 -10 31 0 24 -4 30 -16 25 -16 -6 -37
9 -47 34 -3 9 -6 4 -6 -12 -1 -16 -6 -28 -12 -28 -7 0 -9 8 -4 23 3 12 6 29 5
37 0 8 -1 29 -1 45 0 29 0 29 -16 10 -15 -19 -15 -18 -9 14 3 18 6 41 6 50 0
9 24 -24 52 -74 31 -52 80 -117 119 -157z m-1416 212 c3 -5 1 -10 -4 -10 -6 0
-11 5 -11 10 0 6 2 10 4 10 3 0 8 -4 11 -10z m52 4 c-3 -3 -12 -4 -19 -1 -8 3
-5 6 6 6 11 1 17 -2 13 -5z m1170 -24 c-4 -16 0 -48 8 -71 18 -50 18 -49 2
-49 -18 0 -34 30 -40 80 -5 32 -4 38 2 20 9 -24 9 -24 10 6 1 28 8 44 19 44 2
0 2 -13 -1 -30z m-222 0 c3 -5 -1 -10 -10 -10 -9 0 -13 5 -10 10 3 6 8 10 10
10 2 0 7 -4 10 -10z m144 -27 c14 -48 14 -93 1 -93 -5 0 -10 -18 -10 -40 0
-22 -4 -40 -9 -40 -6 0 -10 47 -10 105 -1 108 10 134 28 68z m-186 -24 c-6
-22 12 -48 30 -45 40 9 67 19 67 27 0 5 9 9 19 9 19 0 37 -32 27 -48 -7 -12
-93 -14 -101 -2 -4 6 -12 4 -23 -6 -15 -15 -16 -15 -23 2 -11 27 -11 112 0 95
5 -7 6 -22 4 -32z m-56 -6 c-6 -16 -17 -34 -24 -41 -15 -16 -17 -36 -3 -27 5
3 7 0 4 -9 -3 -8 -11 -13 -17 -10 -13 4 -57 -54 -57 -74 0 -7 -5 -12 -11 -12
-6 0 -9 -6 -6 -13 3 -7 -4 -19 -15 -26 -11 -7 -17 -15 -14 -18 3 -3 13 0 23 8
11 9 14 10 9 2 -4 -7 -2 -13 3 -13 6 0 11 -8 11 -17 0 -10 -4 -14 -8 -8 -16
22 -32 14 -32 -16 0 -20 4 -28 12 -23 7 4 8 3 4 -4 -4 -7 -3 -12 2 -12 5 0 14
10 20 23 8 17 11 18 11 5 1 -10 17 -34 36 -54 20 -20 34 -38 32 -41 -8 -7 -67
48 -67 63 0 11 -4 12 -19 2 -26 -16 -51 4 -45 37 2 13 0 27 -6 30 -5 3 -10 0
-10 -8 0 -8 -7 -20 -15 -27 -32 -26 -12 11 80 149 52 79 95 148 95 153 0 4 4
8 10 8 6 0 5 -11 -3 -27z m2303 -55 c0 -6 -6 -8 -14 -5 -8 3 -17 1 -19 -6 -2
-7 -8 -9 -12 -5 -12 11 14 38 31 31 8 -3 14 -10 14 -15z m80 -22 c-6 -6 -22
-5 -42 1 l-33 10 42 -1 c26 0 39 -4 33 -10z m-145 -5 c-3 -6 14 -8 42 -6 34 3
42 2 28 -5 -11 -5 -40 -9 -64 -9 -42 -1 -43 0 -25 14 22 17 27 18 19 6z
m-2275 -31 c0 -5 -4 -10 -10 -10 -5 0 -10 5 -10 10 0 6 5 10 10 10 6 0 10 -4
10 -10z m417 -22 c0 -18 -5 -36 -11 -40 -8 -5 -8 -13 1 -27 6 -10 9 -21 6 -24
-8 -9 -33 19 -33 37 0 8 -4 18 -10 21 -5 3 -10 -2 -10 -12 0 -24 -19 -43 -35
-37 -7 3 -16 0 -21 -7 -4 -7 -3 -10 3 -6 14 9 37 -19 27 -34 -4 -7 -8 -26 -9
-43 -3 -31 -2 -31 37 -28 28 3 36 7 27 13 -8 5 -22 6 -33 3 -12 -4 -16 -2 -12
5 4 6 1 11 -6 12 -10 0 -10 2 0 6 6 2 12 11 12 19 0 8 4 14 8 14 5 0 14 10 20
23 11 22 11 22 11 1 1 -12 -6 -24 -14 -28 -8 -3 -15 -12 -15 -21 0 -18 20 -21
20 -2 1 7 6 5 14 -5 7 -10 18 -18 25 -18 15 0 14 -8 -3 -26 -10 -9 -25 -12
-45 -8 -38 8 -93 -26 -108 -67 -8 -21 -16 -26 -32 -22 -27 7 -27 23 -1 23 11
0 23 8 27 18 3 9 12 24 20 34 13 14 12 17 -5 22 -11 4 -23 14 -26 22 -3 8 -2
12 4 9 6 -3 10 1 10 9 0 8 -4 18 -10 21 -18 11 -12 55 8 55 14 0 15 -2 2 -10
-8 -5 -10 -10 -4 -10 7 0 12 -6 11 -12 -1 -38 4 -48 26 -48 20 1 20 2 4 11
-19 11 -22 79 -2 79 5 1 -3 7 -20 15 -26 12 -27 13 -8 14 12 1 25 -3 28 -9 12
-19 34 -10 51 20 13 20 20 26 26 17 6 -9 10 -9 19 0 10 10 6 15 -22 25 l-34
13 40 6 c22 3 40 7 41 8 0 0 1 -14 1 -31z m-420 -25 c-11 -25 -22 -23 -30 6
-3 14 0 18 18 17 19 -1 21 -4 12 -23z m296 0 c-7 -2 -21 -2 -30 0 -10 3 -4 5
12 5 17 0 24 -2 18 -5z m187 -18 c10 -12 10 -18 0 -30 -9 -10 -9 -15 -1 -15 6
0 11 -5 11 -11 0 -8 -4 -8 -14 0 -7 6 -21 9 -29 5 -11 -4 -18 2 -23 20 -3 13
-3 30 1 35 9 16 41 13 55 -4z m92 -22 c10 -9 18 -29 18 -45 0 -33 1 -33 41
-12 17 8 33 13 36 10 3 -3 -2 -8 -11 -12 -9 -3 -16 -14 -16 -23 0 -9 -4 -21
-9 -26 -5 -6 -26 -43 -46 -82 -24 -46 -44 -73 -54 -73 -9 0 -12 3 -6 8 32 23
46 51 36 70 -9 16 -7 21 9 25 11 3 20 13 20 22 0 9 -3 14 -7 12 -5 -3 -9 20
-10 50 -1 36 -7 61 -19 74 -21 23 -8 25 18 2z m-562 -23 c-9 -6 -9 -12 1 -28
25 -40 68 -32 84 16 4 13 14 18 35 17 38 -2 47 -11 33 -33 -7 -11 -22 -16 -41
-15 -17 2 -34 -2 -37 -8 -9 -13 23 -49 44 -49 14 0 14 2 1 10 -12 8 -12 10 -1
10 18 0 63 -49 55 -61 -3 -5 0 -16 6 -24 10 -12 10 -19 -1 -32 -10 -11 -11
-17 -3 -20 7 -2 10 -13 7 -23 -3 -11 0 -20 6 -20 6 0 11 6 11 14 0 16 18 31
26 23 9 -9 -51 -86 -63 -82 -6 2 -13 0 -15 -6 -2 -5 -3 11 -4 36 -1 48 10 63
14 18 2 -26 9 -40 16 -32 2 2 1 19 -1 37 -5 31 -8 34 -34 28 -15 -3 -31 -1
-34 4 -3 6 1 10 9 10 22 0 20 17 -5 43 -11 12 -18 30 -16 39 4 14 2 15 -14 5
-22 -14 -26 -39 -4 -31 9 4 15 0 15 -10 0 -9 -8 -16 -20 -16 -11 0 -20 7 -20
15 0 8 -4 15 -9 15 -6 0 -25 14 -43 30 -18 17 -28 30 -23 30 6 0 6 3 0 8 -6 4
-18 26 -27 50 -14 35 -14 42 -2 42 8 0 14 -8 14 -17 1 -23 28 -59 37 -49 4 4
3 10 -3 14 -19 13 -22 37 -5 55 10 12 17 15 19 7 3 -7 -1 -16 -8 -20z m80 11
c0 -20 -25 -51 -40 -51 -8 0 30 68 38 70 1 0 2 -9 2 -19z m458 -3 c12 -15 4
-70 -9 -62 -5 3 -6 17 -3 31 4 16 2 28 -7 34 -8 5 -9 9 -3 9 6 0 16 -6 22 -12z
m-348 -65 c0 -80 -7 -78 -18 5 -7 49 -6 62 5 62 9 0 13 -18 13 -67z m1885 57
c3 -5 -1 -10 -9 -10 -9 0 -16 5 -16 10 0 6 4 10 9 10 6 0 13 -4 16 -10z
m-2040 -10 c-3 -5 -12 -10 -18 -10 -7 0 -6 4 3 10 19 12 23 12 15 0z m184 -45
c-1 -30 -6 -55 -11 -55 -4 0 -8 25 -8 55 0 31 4 55 10 55 6 0 10 -23 9 -55z
m1811 41 c0 -2 -9 -6 -20 -9 -11 -3 -18 -1 -14 4 5 9 34 13 34 5z m139 -7
c-18 -11 -39 -11 -39 0 0 5 12 9 26 9 18 0 22 -3 13 -9z m-1758 -23 c5 3 9 0
9 -5 0 -6 -7 -11 -15 -11 -8 0 -15 8 -14 18 0 10 3 12 6 4 2 -6 9 -10 14 -6z
m1567 9 c-8 -8 -68 -25 -68 -19 0 6 41 23 59 23 8 1 12 -1 9 -4z m288 -10 c-3
-8 0 -15 6 -15 6 0 9 -3 5 -6 -10 -11 -26 6 -20 21 3 8 7 15 10 15 3 0 3 -7
-1 -15z m44 -5 c0 -5 -4 -10 -9 -10 -6 0 -13 5 -16 10 -3 6 1 10 9 10 9 0 16
-4 16 -10z m-1800 -20 c0 -5 -4 -10 -10 -10 -5 0 -10 5 -10 10 0 6 5 10 10 10
6 0 10 -4 10 -10z m322 -12 c65 -21 88 -38 51 -38 -27 0 -80 -42 -102 -81 -75
-133 60 -289 203 -235 54 21 81 49 101 106 14 40 14 48 -1 93 -9 27 -30 62
-47 78 l-31 30 60 -7 c32 -4 65 -12 72 -18 6 -7 24 -59 39 -117 l27 -105 -22
-65 c-30 -89 -29 -115 6 -132 15 -8 33 -12 40 -10 32 12 6 -17 -50 -54 -146
-95 -512 -256 -664 -292 -102 -23 -162 -26 -250 -10 -61 10 -184 47 -196 58
-7 6 -29 184 -23 189 2 2 18 -7 35 -20 25 -18 44 -23 93 -23 53 0 68 4 99 28
45 35 73 100 65 156 l-5 39 82 40 c50 25 100 60 131 91 49 49 125 166 175 269
14 28 29 51 34 52 5 0 40 -10 78 -22z m1233 12 l30 -8 -30 0 c-16 0 -39 3 -50
8 l-20 9 20 -1 c11 0 34 -4 50 -8z m-2210 -10 c-3 -4 1 -11 7 -14 7 -3 0 -3
-15 -1 -24 3 -27 2 -16 -11 6 -8 9 -17 5 -21 -10 -10 -35 31 -26 42 11 13 53
17 45 5z m2324 -6 c2 -2 -12 -4 -32 -4 -20 0 -37 4 -37 10 0 8 58 3 69 -6z
m52 5 c-16 -6 -28 -6 -35 1 -7 7 1 10 25 9 32 0 33 -1 10 -10z m-2061 -9 c0
-5 -2 -10 -4 -10 -3 0 -8 5 -11 10 -3 6 -1 10 4 10 6 0 11 -4 11 -10z m380
-26 c0 -8 -4 -12 -10 -9 -5 3 -10 13 -10 21 0 8 5 12 10 9 6 -3 10 -13 10 -21z
m-89 -7 c-6 -8 -3 -20 10 -36 20 -24 23 -19 19 32 -1 15 3 27 9 27 6 0 11 -13
11 -30 0 -19 5 -30 14 -30 17 0 31 -18 22 -27 -3 -3 -12 0 -21 7 -19 16 -25
10 -34 -32 -4 -20 -14 -34 -25 -36 -13 -3 -17 1 -14 15 2 10 10 17 16 16 18
-4 15 33 -4 52 -19 19 -50 16 -48 -5 1 -8 5 -27 9 -42 6 -23 4 -28 -11 -29
-17 -1 -17 -2 -1 -6 9 -2 15 -8 12 -13 -3 -5 -12 -7 -19 -4 -8 3 -16 1 -19 -3
-3 -5 4 -10 15 -10 12 -1 24 -6 27 -11 3 -5 17 -8 31 -7 19 1 25 7 25 26 0 18
5 23 20 21 26 -5 26 -3 1 -33 -49 -56 -136 -107 -136 -79 0 5 6 7 13 4 7 -2
22 4 32 16 19 21 8 29 -13 8 -10 -10 -17 -10 -32 0 -11 7 -20 11 -20 10 0 -2
4 -18 9 -36 8 -28 7 -32 -8 -32 -10 0 -24 -7 -31 -15 -29 -35 -19 0 30 100 36
75 50 117 48 139 -2 22 1 31 12 32 8 1 21 2 28 3 6 0 12 8 12 17 0 8 5 12 10
9 7 -4 8 -11 1 -18z m-510 -5 c12 -11 24 -27 25 -37 2 -11 5 -29 9 -42 4 -16
1 -23 -10 -23 -8 0 -15 -4 -15 -10 0 -5 -16 -12 -36 -16 -66 -12 -115 35 -94
91 21 55 77 72 121 37z m-131 -7 c10 -12 9 -16 -4 -21 -9 -3 -16 -18 -16 -33
0 -14 -5 -33 -11 -41 -7 -11 -8 -4 -3 25 4 22 11 46 17 53 6 8 6 12 -2 12 -6
0 -13 -11 -17 -25 -3 -14 -9 -25 -13 -25 -4 0 -5 -16 -3 -35 3 -24 10 -35 21
-36 12 0 13 -2 2 -6 -18 -7 -41 24 -41 56 0 28 34 91 49 91 5 0 14 -7 21 -15z
m402 -7 c6 22 28 32 28 12 0 -5 -4 -10 -10 -10 -5 0 -7 -7 -4 -15 5 -11 -1
-15 -19 -15 -14 0 -29 5 -32 10 -3 6 -1 10 4 10 6 0 11 8 12 18 1 11 4 8 8 -8
7 -25 7 -25 13 -2z m-205 -36 c-24 -5 -16 -26 11 -30 29 -4 28 -19 -3 -24 -20
-4 -25 0 -31 25 -6 31 10 52 31 39 6 -4 2 -8 -8 -10z m433 9 c0 -17 -18 -21
-24 -6 -3 9 0 15 9 15 8 0 15 -4 15 -9z m1016 -16 c3 -14 3 -37 -2 -52 -4 -16
-8 -33 -9 -38 0 -6 -15 -34 -33 -63 -17 -29 -32 -56 -32 -60 -1 -4 -10 -18
-21 -31 -31 -38 -34 -16 -3 25 20 25 25 39 16 42 -6 2 -12 11 -12 20 1 15 2
15 14 -1 18 -23 25 -11 19 31 -3 19 -11 32 -19 32 -12 0 -12 -4 -4 -20 9 -17
8 -20 -10 -20 -21 0 -24 10 -14 46 4 16 11 20 32 16 15 -2 32 -10 38 -18 9
-11 13 -6 21 21 11 33 10 35 -12 29 -15 -4 -24 0 -29 12 -5 13 -4 15 8 5 7 -6
21 -9 30 -5 18 7 22 24 5 24 -5 0 -7 5 -4 11 5 7 -5 8 -32 3 -46 -8 -52 -12
-33 -24 12 -8 10 -10 -9 -10 -17 0 -22 4 -17 16 6 15 4 15 -10 3 -13 -11 -18
-11 -21 -1 -6 17 -23 15 -23 -3 0 -8 9 -15 20 -15 11 0 20 -7 20 -16 0 -8 4
-12 10 -9 6 3 7 -1 4 -9 -5 -13 -9 -12 -24 7 -17 21 -19 21 -26 4 -4 -10 -1
-50 5 -88 6 -39 9 -74 6 -80 -4 -5 0 -9 8 -9 7 0 14 6 15 13 0 6 5 26 11 42
10 30 10 30 8 -10 -2 -39 -19 -66 -50 -78 -9 -3 -17 -2 -17 3 0 6 8 11 18 11
13 1 14 2 2 5 -12 4 -15 14 -12 40 4 34 -21 162 -39 196 -5 10 -9 20 -9 23 0
3 47 5 105 5 103 0 105 0 111 -25z m-1362 -20 c-19 -13 -50 -9 -61 8 -4 6 4 8
21 5 14 -3 29 -1 32 4 3 4 10 6 15 2 6 -3 3 -11 -7 -19z m408 -7 c-7 -7 -12
-8 -12 -2 0 6 3 14 7 17 3 4 9 5 12 2 2 -3 -1 -11 -7 -17z m-781 -30 c-5 -13
-7 -37 -4 -54 l5 -29 -17 24 c-17 23 -17 25 0 57 20 38 30 40 16 2z m94 2 c-3
-4 2 -10 10 -14 8 -3 15 -10 15 -16 0 -8 -6 -8 -20 0 -11 6 -20 20 -20 31 0
11 5 17 10 14 6 -4 8 -10 5 -15z m1885 -40 c55 -28 100 -55 100 -61 0 -29 -75
-231 -107 -289 -54 -99 -188 -260 -202 -243 -4 4 -12 29 -19 56 -22 86 -51
136 -97 163 l-43 25 72 97 c72 97 125 179 165 260 12 23 24 42 26 42 3 0 50
-23 105 -50z m-1720 31 c0 -5 -7 -14 -15 -21 -11 -9 -12 -17 -5 -31 8 -15 20
-18 65 -15 37 2 59 -1 66 -10 8 -10 8 -14 1 -14 -6 0 -14 5 -17 10 -5 8 -11 7
-21 -1 -10 -8 -17 -9 -28 0 -10 8 -16 8 -23 -1 -20 -26 -22 -47 -5 -57 9 -6
15 -11 12 -11 -29 -7 -37 -9 -53 -15 -15 -6 -18 -3 -15 21 2 23 -1 28 -14 26
-10 -2 -18 1 -18 6 0 4 -35 8 -77 8 -74 -1 -78 0 -77 21 0 12 -3 20 -8 17 -9
-6 -11 20 -1 29 3 4 12 -1 18 -10 19 -25 72 -26 78 -1 3 11 10 17 16 14 6 -4
8 -13 4 -21 -8 -24 10 -17 40 15 16 16 35 26 43 23 8 -3 14 1 14 11 0 9 5 16
10 16 6 0 10 -4 10 -9z m142 -33 c-8 -8 -12 -9 -12 -1 0 6 -3 20 -6 30 -7 17
-6 17 12 1 14 -14 16 -20 6 -30z m1203 -33 c4 -32 3 -46 -3 -40 -5 6 -12 35
-16 65 -8 68 9 46 19 -25z m-1585 49 c0 -8 -5 -12 -10 -9 -6 4 -8 11 -5 16 9
14 15 11 15 -7z m725 -4 c3 -5 -1 -10 -9 -10 -9 0 -16 5 -16 10 0 6 4 10 9 10
6 0 13 -4 16 -10z m-411 -25 c-23 -17 -34 -19 -34 -5 0 11 42 31 49 24 3 -2
-4 -11 -15 -19z m41 16 c3 -5 1 -12 -5 -16 -5 -3 -10 1 -10 9 0 18 6 21 15 7z
m-405 -28 c0 -9 -7 -24 -15 -33 -21 -23 -9 -48 26 -57 22 -6 26 -11 18 -23 -8
-13 -11 -13 -20 3 -5 9 -17 17 -24 17 -8 0 -15 7 -15 16 0 8 -5 12 -10 9 -6
-3 -7 -17 -4 -31 7 -29 -1 -31 -16 -4 -9 16 -7 26 10 49 11 16 20 34 20 41 0
6 4 8 10 5 6 -3 7 1 4 9 -3 9 -1 16 5 16 6 0 11 -8 11 -17z m130 7 c0 -5 -7
-10 -15 -10 -8 0 -15 5 -15 10 0 6 7 10 15 10 8 0 15 -4 15 -10z m310 -58 c0
-22 -41 -50 -72 -48 -18 1 -32 5 -30 10 2 4 -5 14 -15 22 -16 12 -16 13 -2 14
9 0 19 -7 23 -15 3 -8 12 -15 20 -15 10 0 13 6 10 15 -4 8 -1 15 6 15 8 0 10
-8 7 -22 -6 -21 -4 -21 16 4 22 27 37 35 37 20z m1845 -82 c44 -34 82 -66 86
-73 5 -9 67 -215 105 -348 4 -13 -17 -9 -98 23 -128 48 -222 64 -300 51 -32
-5 -60 -8 -62 -5 -3 2 8 23 23 46 49 71 89 157 123 264 18 56 35 102 38 102 3
0 41 -27 85 -60z m-2330 -126 c4 -41 11 -74 16 -74 5 0 9 -22 9 -50 l0 -50 40
0 c37 0 40 -2 40 -28 0 -26 -3 -28 -34 -24 -26 3 -37 -1 -53 -22 -18 -22 -22
-24 -27 -10 -4 9 -9 14 -13 11 -9 -10 36 -97 48 -94 18 4 21 -20 4 -27 -12 -4
-22 8 -41 52 -14 31 -29 66 -34 77 -45 98 -53 127 -39 136 12 7 12 11 1 18
-10 6 -12 21 -7 57 8 59 29 134 46 165 12 23 12 22 25 -20 7 -24 16 -76 19
-117z m395 136 c0 -5 -11 -18 -26 -29 -14 -11 -25 -22 -25 -25 3 -27 -4 -41
-34 -75 -19 -21 -35 -49 -35 -62 0 -17 -3 -20 -9 -10 -12 18 -18 4 -19 -45 -1
-29 3 -44 14 -48 12 -5 14 1 8 32 -5 27 -3 34 5 26 30 -27 36 -408 9 -531 -10
-49 -28 -73 -28 -38 0 8 -4 15 -10 15 -5 0 -10 6 -10 14 0 8 -29 41 -65 74
-36 33 -65 62 -65 65 0 16 41 27 60 17 15 -8 18 -18 14 -47 -4 -34 -3 -36 9
-19 9 12 16 15 21 8 3 -6 2 -13 -4 -17 -13 -8 -13 -25 0 -25 6 0 10 6 10 14 0
7 7 19 15 26 18 15 21 -1 4 -32 -8 -16 -8 -19 1 -13 9 5 10 1 5 -14 -4 -12 -2
-21 4 -21 6 0 11 5 11 12 0 6 3 8 6 5 4 -4 1 -13 -6 -22 -11 -13 -10 -14 4 -9
13 5 16 21 17 78 0 39 2 94 5 121 2 37 1 46 -7 35 -9 -12 -10 -12 -5 3 3 10 6
35 7 55 1 33 2 35 9 12 l8 -25 1 28 c1 18 -4 27 -14 27 -17 0 -21 55 -5 65 13
8 13 35 0 35 -5 0 -7 -7 -4 -15 4 -10 0 -15 -12 -15 -23 1 -60 27 -51 36 3 4
13 -1 22 -10 22 -21 25 -20 25 9 0 14 -6 25 -14 25 -10 0 -12 12 -8 50 3 33 1
50 -7 50 -6 0 -11 -17 -11 -40 0 -22 -5 -40 -11 -40 -6 0 -9 17 -7 42 2 32 8
45 25 54 18 8 20 13 10 23 -9 9 -7 13 11 17 15 5 22 14 22 31 0 22 3 24 24 19
30 -7 50 15 42 48 -4 18 -1 25 14 29 11 3 20 10 20 17 0 6 -4 8 -10 5 -5 -3
-10 -2 -10 4 0 5 6 11 13 14 15 5 37 -2 37 -13z m-380 -32 c0 -18 -2 -20 -9
-8 -6 8 -7 18 -5 22 9 14 14 9 14 -14z m250 0 c0 -14 -8 -18 -35 -18 -19 0
-35 -4 -35 -10 0 -5 -12 -10 -26 -10 -14 0 -23 4 -19 10 3 6 0 10 -8 10 -7 0
-14 -7 -14 -15 0 -8 4 -12 8 -9 12 7 23 -16 12 -27 -5 -5 -21 2 -37 16 -25 22
-26 25 -10 26 17 1 17 2 2 6 -14 3 -16 9 -9 22 8 14 24 17 90 17 70 -1 81 -3
81 -18z m-226 -3 c3 -8 1 -15 -4 -15 -6 0 -10 7 -10 15 0 8 2 15 4 15 2 0 6
-7 10 -15z m261 -32 c10 24 24 22 18 -3 -3 -13 -14 -20 -29 -20 -26 0 -27 1
-17 26 6 16 7 16 14 -2 6 -18 7 -18 14 -1z m-45 -7 c0 -2 -3 -11 -6 -20 -9
-23 -24 -20 -24 4 0 11 7 20 15 20 8 0 15 -2 15 -4z m-65 -46 c3 -5 -1 -10 -9
-10 -9 0 -16 5 -16 10 0 6 4 10 9 10 6 0 13 -4 16 -10z m13 -43 c-17 -13 -34
-78 -29 -109 3 -21 -24 -24 -32 -4 -3 8 -3 23 0 34 6 24 -32 51 -40 29 -3 -6
-5 2 -5 18 0 17 2 24 5 18 2 -7 11 -13 19 -13 9 0 12 5 8 13 -4 6 -4 9 1 5 4
-4 17 -1 29 7 11 8 30 15 41 15 18 -1 19 -2 3 -13z m-158 -22 c0 -8 -4 -15
-10 -15 -5 0 -10 7 -10 15 0 8 5 15 10 15 6 0 10 -7 10 -15z m1653 -82 c50
-25 116 -213 87 -248 -18 -22 -29 -19 -36 13 -20 90 -47 153 -80 182 -19 16
-41 30 -49 30 -23 0 -28 20 -9 35 20 15 40 12 87 -12z m-121 -65 c21 -6 49
-21 61 -34 25 -24 73 -183 64 -208 -21 -55 -317 -186 -523 -232 l-78 -17 -33
39 c-52 61 -60 102 -37 181 l19 66 135 58 c74 32 178 81 230 108 106 55 107
56 162 39z m-1432 -65 c-1 -20 -27 -59 -35 -52 -3 3 -8 20 -11 37 -6 29 -4 32
20 32 18 0 26 -5 26 -17z m110 3 c0 -2 -3 -11 -6 -20 -9 -23 -24 -20 -24 4 0
11 7 20 15 20 8 0 15 -2 15 -4z m-225 -65 c-12 -11 -24 16 -18 39 l7 25 7 -30
c5 -16 6 -31 4 -34z m2310 22 c44 -14 93 -32 109 -40 l29 -15 -27 -17 c-25
-17 -29 -16 -110 11 -109 36 -180 42 -291 25 -49 -8 -92 -13 -94 -11 -3 2 6
15 18 28 22 23 56 32 181 50 40 5 99 -5 185 -31z m-2255 -23 c0 -5 -4 -10 -10
-10 -5 0 -10 5 -10 10 0 6 5 10 10 10 6 0 10 -4 10 -10z m110 -31 c0 -25 -4
-39 -11 -37 -6 2 -10 7 -10 11 1 4 1 21 1 37 0 17 5 30 10 30 6 0 10 -18 10
-41z m50 1 c0 -22 -4 -40 -10 -40 -5 0 -10 18 -10 40 0 22 5 40 10 40 6 0 10
-18 10 -40z m-140 -20 c0 -5 -7 -10 -15 -10 -8 0 -15 5 -15 10 0 6 7 10 15 10
8 0 15 -4 15 -10z m-56 -26 c9 -23 7 -36 -3 -30 -12 8 -21 46 -11 46 4 0 11
-7 14 -16z m2248 -12 c32 -9 58 -19 57 -22 0 -3 -26 -22 -57 -43 -31 -21 -75
-51 -97 -67 -23 -17 -59 -31 -85 -34 -232 -30 -240 -30 -240 0 0 8 -10 35 -21
60 l-22 45 22 23 c18 19 43 27 129 40 189 29 215 28 314 -2z m-2217 -21 c-10
-32 -22 -25 -17 10 3 20 8 27 14 21 6 -6 7 -19 3 -31z m170 -11 c-5 -8 -11 -8
-17 -2 -6 6 -7 16 -3 22 5 8 11 8 17 2 6 -6 7 -16 3 -22z m235 -3 c0 -4 -9
-20 -21 -36 -21 -28 -45 -160 -35 -188 4 -10 0 -14 -17 -11 -25 3 -25 3 -13
153 10 120 8 115 50 101 20 -6 36 -14 36 -19z m490 -13 c-6 -14 -10 -49 -10
-78 0 -41 7 -62 31 -100 16 -27 29 -50 27 -51 -2 -2 -15 -6 -30 -10 -26 -7
-30 -3 -58 56 -41 88 -37 182 9 206 33 16 42 8 31 -23z m-874 2 c0 -14 -6 -22
-13 -19 -9 4 -9 9 0 24 15 24 15 24 13 -5z m94 14 c0 -5 -7 -10 -15 -10 -8 0
-15 5 -15 10 0 6 7 10 15 10 8 0 15 -4 15 -10z m428 -25 c2 -2 -6 -20 -17 -41
-12 -21 -21 -56 -21 -77 0 -45 32 -112 60 -127 61 -33 -38 -39 -138 -9 l-44
13 4 91 c3 83 6 95 32 129 28 37 30 38 75 31 25 -4 47 -8 49 -10z m234 -54
c-4 -59 0 -78 22 -127 l26 -57 -62 7 c-108 13 -180 68 -164 129 10 43 56 85
111 101 73 22 71 23 67 -53z m-620 24 c3 -14 1 -25 -3 -25 -5 0 -9 11 -9 25 0
14 2 25 4 25 2 0 6 -11 8 -25z m1522 -62 c9 -21 -13 -35 -44 -27 -20 4 -23 3
-12 -7 14 -16 16 -39 2 -39 -5 0 -9 5 -7 11 1 6 -3 13 -10 16 -8 3 -11 -3 -8
-16 3 -14 -4 -24 -26 -33 -30 -13 -36 -23 -19 -31 6 -3 5 -4 -2 -3 -24 5 -21
34 4 38 12 2 24 11 26 21 4 21 -11 22 -32 2 -9 -9 -28 -22 -43 -30 -19 -10
-22 -15 -11 -15 10 0 25 -11 34 -24 10 -16 21 -23 31 -19 12 5 15 2 10 -9 -3
-9 1 -24 8 -35 9 -10 14 -13 15 -5 0 19 17 14 23 -7 3 -14 1 -18 -10 -14 -12
5 -14 1 -8 -15 10 -35 -11 -25 -26 11 -14 32 -28 54 -63 90 -14 15 -27 18 -53
14 -47 -8 -39 13 13 32 21 8 41 18 44 22 3 3 28 19 57 33 28 15 57 34 64 42
15 19 35 18 43 -3z m16 -61 c0 -15 -2 -15 -10 -2 -13 20 -13 33 0 25 6 -3 10
-14 10 -23z m-30 -2 c0 -5 -4 -10 -10 -10 -5 0 -10 5 -10 10 0 6 5 10 10 10 6
0 10 -4 10 -10z m40 -72 c0 -57 -9 -88 -26 -88 -16 0 -19 -16 -4 -25 6 -3 10
-1 10 6 0 7 3 10 6 7 6 -7 -25 -119 -37 -133 -9 -10 -14 19 -10 68 2 19 -2 27
-13 27 -18 0 -21 16 -6 25 6 3 10 1 10 -5 0 -6 5 -8 10 -5 6 4 10 12 9 18 -4
30 2 47 16 47 8 0 15 9 15 20 0 22 -16 27 -23 8 -2 -7 -8 -10 -12 -6 -4 4 2
17 14 29 12 13 21 29 21 36 0 7 5 13 10 13 6 0 10 -19 10 -42z m-70 11 c0 -6
-4 -7 -10 -4 -5 3 -10 11 -10 16 0 6 5 7 10 4 6 -3 10 -11 10 -16z m920 11 c0
-5 -4 -10 -10 -10 -5 0 -10 5 -10 10 0 6 5 10 10 10 6 0 10 -4 10 -10z m-1230
-39 c0 -5 -19 -16 -42 -24 -70 -26 -112 -42 -342 -131 -219 -85 -266 -100
-236 -73 26 24 568 234 608 236 6 1 12 -3 12 -8z m280 -16 c-7 -8 -17 -15 -22
-15 -11 0 14 29 26 30 5 0 3 -7 -4 -15z m28 -36 c-3 -8 -7 -3 -11 10 -4 17 -3
21 5 13 5 -5 8 -16 6 -23z m-1221 -50 c21 -8 22 -10 8 -41 -11 -28 -18 -32
-41 -30 -76 9 -145 72 -123 113 9 17 13 17 72 -7 34 -14 72 -30 84 -35z m878
-68 c41 -79 96 -147 125 -156 29 -9 24 -18 -23 -39 -23 -11 -55 -28 -71 -39
-28 -20 -28 -20 -140 2 -179 36 -247 49 -318 61 l-67 12 13 31 c10 26 25 36
85 59 40 16 77 26 82 22 5 -3 9 -1 9 4 0 5 12 14 28 20 15 6 74 29 132 51 58
22 106 41 107 41 1 0 18 -31 38 -69z m-659 22 c-4 -16 -14 -32 -23 -38 -8 -5
-25 -18 -37 -27 -20 -16 -21 -18 -3 -48 9 -18 17 -38 17 -45 0 -7 -24 -32 -52
-56 -29 -24 -61 -51 -71 -61 -10 -10 -20 -18 -23 -18 -10 0 9 45 32 76 29 38
30 58 4 117 -11 25 -18 51 -15 59 26 73 18 68 101 68 l76 0 -6 -27z m999 7 c3
-5 3 -15 -1 -21 -6 -11 -23 6 -24 24 0 10 18 9 25 -3z m805 -44 c0 -13 -49
-56 -64 -56 -3 0 -6 11 -6 25 0 17 7 29 23 35 33 13 47 12 47 -4z m-301 -42
c-7 -9 -36 -27 -64 -41 -56 -29 -200 -43 -245 -25 l-25 11 26 0 c34 1 230 57
277 79 29 14 38 15 40 4 2 -7 -2 -20 -9 -28z m-1736 14 c20 -10 23 -34 5 -41
-21 -7 -151 2 -161 12 -6 6 5 17 29 30 39 20 86 20 127 -1z m2053 -125 c-5
-52 -12 -74 -31 -92 l-23 -24 -7 49 c-4 27 -9 56 -11 65 -4 16 49 69 70 69 5
0 6 -30 2 -67z m-2012 40 c11 -29 -27 -57 -78 -57 -63 -1 -78 17 -35 40 69 35
104 41 113 17z m301 -15 c-3 -13 -14 -61 -24 -108 l-18 -85 -34 3 c-19 2 -36
5 -38 7 -1 2 4 25 12 52 9 26 21 67 27 90 8 31 17 44 38 51 40 15 43 14 37
-10z m1415 -12 c0 -19 -10 -28 -52 -47 -43 -19 -74 -24 -164 -27 -97 -3 -112
-1 -118 13 -10 28 0 31 66 25 82 -8 142 2 198 33 58 32 70 32 70 3z m534 -81
c5 -20 4 -27 -3 -20 -5 6 -12 28 -15 50 -7 43 5 24 18 -30z m-1165 12 c-12
-11 -163 -87 -171 -87 -5 0 -8 5 -6 12 7 19 162 97 172 87 5 -5 8 -10 5 -12z
m-582 -22 c222 -38 343 -70 371 -98 34 -34 35 -87 2 -104 -34 -19 -93 -11
-340 43 -185 41 -233 56 -219 68 2 2 112 -19 244 -46 132 -27 256 -47 275 -46
43 4 51 30 20 64 -25 26 -62 35 -339 88 -99 18 -176 37 -179 44 -5 16 -6 16
165 -13z m738 -20 c50 -19 61 -27 66 -51 14 -62 12 -65 -29 -58 -25 4 -51 0
-77 -10 -21 -9 -40 -15 -41 -13 -7 6 -20 157 -15 163 3 2 12 2 20 -2 9 -4 43
-17 76 -29z m-155 -24 c0 -29 0 -29 -117 -78 -6 -2 -16 5 -22 16 -10 19 -5 24
56 55 38 19 71 35 76 36 4 0 7 -13 7 -29z m-540 -17 c257 -50 252 -49 278 -63
22 -11 31 -41 13 -41 -9 0 -357 69 -460 91 -40 8 -51 15 -51 30 0 25 4 25 220
-17z m1663 -4 c4 -4 5 -19 1 -34 -8 -33 -35 -40 -118 -31 -58 6 -65 9 -71 32
-3 14 -3 28 0 32 9 8 125 18 155 13 14 -3 29 -8 33 -12z m-1113 -39 c0 -10
-102 -52 -123 -50 -12 1 100 58 116 59 4 0 7 -4 7 -9z m-852 -48 c-2 -10 -9
-18 -16 -17 -6 1 -23 2 -37 3 -15 0 -25 7 -25 16 0 11 11 15 41 15 33 0 40 -3
37 -17z m1066 -29 c9 -3 16 -14 16 -23 0 -13 -11 -16 -57 -17 -32 0 -68 -4
-80 -8 -18 -6 -23 -5 -23 8 0 32 95 59 144 40z m673 -40 c20 -40 15 -47 -47
-63 -90 -24 -98 -24 -125 3 -37 37 -33 63 13 75 64 17 76 19 110 20 28 1 35
-4 49 -35z m100 4 c-3 -8 -6 -5 -6 6 -1 11 2 17 5 13 3 -3 4 -12 1 -19z"/>
<path d="M4154 4706 c-81 -19 -207 -79 -257 -124 -50 -46 -106 -121 -141 -190
-31 -62 -32 -73 -6 -97 36 -32 63 -13 116 81 26 47 66 102 89 121 66 58 176
103 280 115 50 5 97 13 105 18 20 10 24 41 7 64 -19 25 -109 31 -193 12z"/>
<path d="M3006 3870 c-63 -83 -61 -95 16 -90 14 1 65 -6 112 -16 48 -9 89 -14
93 -10 4 3 -1 22 -10 42 -12 25 -30 41 -62 55 -24 11 -54 33 -65 49 -12 17
-25 30 -30 30 -5 0 -29 -27 -54 -60z m68 -6 c3 -8 28 -24 56 -36 60 -25 67
-44 13 -32 -21 4 -60 8 -88 10 -55 2 -55 2 -23 44 25 34 33 37 42 14z"/>
<path d="M4005 3845 c-3 -8 -7 -22 -10 -30 -2 -8 -12 -15 -22 -15 -48 -1 -153
-73 -153 -106 0 -8 43 -10 148 -7 81 3 153 6 160 9 24 7 0 57 -54 111 -30 29
-56 53 -59 53 -3 0 -8 -7 -10 -15z m62 -81 c18 -14 33 -29 33 -35 0 -5 -48 -9
-112 -9 -126 0 -130 7 -27 45 35 13 66 24 68 24 2 1 19 -10 38 -25z"/>
<path d="M3004 3620 c-52 -21 -94 -107 -80 -164 10 -42 55 -85 99 -97 56 -15
106 1 146 46 57 65 37 171 -39 210 -31 16 -93 19 -126 5z"/>
<path d="M3955 3559 c-62 -19 -95 -65 -95 -130 0 -52 30 -106 70 -126 34 -17
105 -16 140 2 79 41 84 190 8 238 -31 21 -86 28 -123 16z"/>
<path d="M1144 4111 c4 -5 0 -11 -6 -14 -7 -2 -9 -8 -5 -13 4 -5 12 -2 17 6
13 20 12 30 -1 30 -5 0 -8 -4 -5 -9z"/>
<path d="M1117 3960 c-14 -11 -30 -20 -35 -20 -5 0 -15 -7 -22 -15 -7 -8 -9
-15 -6 -15 11 0 95 51 102 61 9 16 -12 10 -39 -11z"/>
<path d="M1369 3863 c0 -5 -2 -19 -4 -33 -2 -14 -1 -20 1 -13 3 7 12 9 20 6 8
-3 14 0 14 6 0 6 -4 11 -10 11 -5 0 -7 7 -4 15 4 8 1 15 -5 15 -6 0 -11 -3
-12 -7z"/>
<path d="M1160 3690 c0 -5 7 -10 16 -10 8 0 12 5 9 10 -3 6 -10 10 -16 10 -5
0 -9 -4 -9 -10z"/>
<path d="M1300 3390 c0 -5 5 -10 10 -10 6 0 10 5 10 10 0 6 -4 10 -10 10 -5 0
-10 -4 -10 -10z"/>
<path d="M1807 3604 c-8 -8 1 -24 12 -24 4 0 8 7 8 15 0 16 -9 20 -20 9z"/>
<path d="M2560 3319 c0 -5 5 -7 10 -4 6 3 10 8 10 11 0 2 -4 4 -10 4 -5 0 -10
-5 -10 -11z"/>
<path d="M1407 3223 c-12 -12 -7 -22 8 -17 8 4 15 10 15 15 0 11 -14 12 -23 2z"/>
<path d="M2721 3124 c0 -11 3 -14 6 -6 3 7 2 16 -1 19 -3 4 -6 -2 -5 -13z"/>
<path d="M2730 3090 c0 -5 5 -10 10 -10 6 0 10 5 10 10 0 6 -4 10 -10 10 -5 0
-10 -4 -10 -10z"/>
<path d="M2750 3056 c0 -9 5 -16 10 -16 6 0 10 4 10 9 0 6 -4 13 -10 16 -5 3
-10 -1 -10 -9z"/>
<path d="M2810 2981 c0 -12 29 -35 36 -28 4 3 -1 13 -9 22 -17 17 -27 19 -27
6z"/>
<path d="M2580 2780 c0 -5 7 -10 15 -10 8 0 15 5 15 10 0 6 -7 10 -15 10 -8 0
-15 -4 -15 -10z"/>
<path d="M2910 2813 c-14 -7 -20 -13 -13 -13 6 0 14 -8 16 -17 4 -14 5 -13 6
4 0 12 7 23 14 26 6 2 10 6 7 9 -3 3 -16 -1 -30 -9z"/>
<path d="M2376 2797 c3 -8 -2 -22 -12 -31 -9 -9 -13 -20 -9 -24 9 -9 47 37 42
51 -2 6 -9 13 -15 15 -7 2 -10 -2 -6 -11z"/>
<path d="M2470 2688 c0 -19 2 -20 10 -8 13 19 13 30 0 30 -5 0 -10 -10 -10
-22z"/>
<path d="M2698 2583 c-20 -5 -23 -18 -8 -28 6 -3 10 -1 10 4 0 6 5 11 11 11 5
0 7 -6 3 -12 -5 -9 -3 -9 9 1 9 7 14 17 11 22 -5 9 -8 10 -36 2z"/>
<path d="M2655 2510 c-3 -5 -1 -10 4 -10 6 0 11 5 11 10 0 6 -2 10 -4 10 -3 0
-8 -4 -11 -10z"/>
<path d="M3600 2679 c0 -16 4 -28 9 -25 8 5 3 56 -5 56 -2 0 -4 -14 -4 -31z"/>
<path d="M2256 2575 c5 -11 2 -13 -10 -9 -12 5 -15 2 -10 -9 6 -16 53 -51 60
-45 8 9 -20 78 -32 78 -8 0 -11 -6 -8 -15z"/>
<path d="M1930 2378 c0 -31 -4 -59 -9 -62 -5 -4 -7 4 -4 16 4 19 3 20 -6 8
-12 -16 -15 -73 -5 -83 4 -3 8 -22 9 -42 1 -25 -1 -32 -7 -23 -6 8 -7 3 -3
-17 4 -16 13 -37 21 -46 8 -9 16 -25 17 -36 0 -10 8 -19 17 -19 14 0 15 5 6
31 -6 16 -15 36 -19 43 -5 7 -4 12 2 12 6 0 11 -3 11 -7 0 -5 10 -19 21 -33
l21 -25 -7 30 c-8 41 -36 214 -39 245 -2 14 -8 35 -14 45 -9 17 -11 11 -12
-37z"/>
<path d="M2250 2330 c0 -5 5 -10 11 -10 5 0 7 5 4 10 -3 6 -8 10 -11 10 -2 0
-4 -4 -4 -10z"/>
<path d="M2101 1821 c-12 -8 -11 -13 10 -30 13 -11 29 -20 34 -21 6 0 3 5 -5
10 -13 9 -13 11 0 20 13 9 13 11 0 20 -18 12 -21 12 -39 1z m29 -11 c0 -5 -4
-10 -10 -10 -5 0 -10 5 -10 10 0 6 5 10 10 10 6 0 10 -4 10 -10z"/>
<path d="M3712 1470 c0 -19 2 -27 5 -17 2 9 2 25 0 35 -3 9 -5 1 -5 -18z"/>
<path d="M4300 550 c-12 -7 -10 -9 7 -7 12 0 19 5 17 9 -6 10 -6 10 -24 -2z"/>
<path d="M2728 533 c7 -3 16 -2 19 1 4 3 -2 6 -13 5 -11 0 -14 -3 -6 -6z"/>
</g>
</svg>
